<?xml version="1.0" encoding="UTF-8"?>
<svg version="1.1" xmlns="http://www.w3.org/2000/svg" width="1408" height="768">
<path d="M0 0 C464.64 0 929.28 0 1408 0 C1408 253.44 1408 506.88 1408 768 C943.36 768 478.72 768 0 768 C0 514.56 0 261.12 0 0 Z " fill="#FEFEFE" transform="translate(0,0)"/>
<path d="M0 0 C1.49152588 0.61572876 1.49152588 0.61572876 3.01318359 1.24389648 C4.09164551 1.69837158 5.17010742 2.15284668 6.28125 2.62109375 C8.06519852 3.36053432 9.84915702 4.09995105 11.63339233 4.83869934 C13.59808604 5.65338101 15.56129111 6.47158037 17.52441406 7.29003906 C22.0794538 9.18608733 26.64449972 11.05738173 31.2109375 12.92578125 C32.02209518 13.25772995 32.83325287 13.58967865 33.66899109 13.9316864 C35.32911491 14.61104005 36.98924578 15.29037647 38.64938354 15.96969604 C55.71144817 22.95549457 72.75181019 29.99368575 89.78125 37.05859375 C88.41416294 40.23960954 86.99339954 41.96712523 84.24609375 44.0546875 C83.52784424 44.60656738 82.80959473 45.15844727 82.06958008 45.72705078 C81.29380615 46.31083496 80.51803223 46.89461914 79.71875 47.49609375 C78.91526123 48.11081543 78.11177246 48.72553711 77.28393555 49.35888672 C74.78848696 51.26606486 72.28543479 53.16290708 69.78125 55.05859375 C67.58711075 56.72849887 65.39460255 58.40050275 63.20336914 60.07421875 C61.78807365 61.15391183 60.3705602 62.23070327 58.95092773 63.3046875 C55.65093032 65.81114941 52.40474812 68.34534735 49.26171875 71.046875 C39.04007426 79.76728756 27.74035209 86.01235657 15.93164062 92.35693359 C12.8719613 94.00959671 9.83177645 95.69295807 6.796875 97.390625 C5.87414795 97.9055249 4.9514209 98.4204248 4.00073242 98.95092773 C2.26574185 99.91909807 0.53149513 100.88860293 -1.2019043 101.85961914 C-1.96929932 102.28364014 -2.73669434 102.70766113 -3.52734375 103.14453125 C-4.19564209 103.51626465 -4.86394043 103.88799805 -5.55249023 104.27099609 C-7.21875 105.05859375 -7.21875 105.05859375 -9.21875 105.05859375 C-9.21875 115.61859375 -9.21875 126.17859375 -9.21875 137.05859375 C-17.09314932 135.93367956 -17.09314932 135.93367956 -20.9934082 134.41064453 C-21.8744371 134.07092117 -22.755466 133.73119781 -23.66319275 133.38117981 C-24.60578445 133.00917953 -25.54837616 132.63717926 -26.51953125 132.25390625 C-27.52846939 131.86285202 -28.53740753 131.47179779 -29.57691956 131.06889343 C-32.89764336 129.78040821 -36.21436632 128.48192864 -39.53125 127.18359375 C-43.03750045 125.82034777 -46.54478769 124.4597947 -50.05218506 123.09950256 C-52.46773931 122.16259226 -54.88297812 121.22486833 -57.2979126 120.28636169 C-65.51939218 117.0939772 -73.75520064 113.94163959 -82.00390625 110.8203125 C-83.11133682 110.40112549 -84.2187674 109.98193848 -85.35975647 109.55004883 C-89.62418475 107.93689912 -93.88905007 106.32493494 -98.15567017 104.71759033 C-112.27589042 99.39655119 -126.28301514 93.8462562 -140.21875 88.05859375 C-140.19927681 92.09794325 -140.14740506 96.13548042 -140.06616211 100.17407227 C-140.04304022 101.54634806 -140.02859997 102.91879984 -140.02319336 104.29125977 C-140.01386335 106.26993846 -139.97017981 108.24835999 -139.92578125 110.2265625 C-139.9100708 111.41531982 -139.89436035 112.60407715 -139.87817383 113.82885742 C-139.04316753 117.91856432 -137.23384151 119.28028179 -134.21875 122.05859375 C-133.64402919 126.08163942 -133.87124147 128.31618916 -135.59375 131.99609375 C-136.13 132.67671875 -136.66625 133.35734375 -137.21875 134.05859375 C-137.87875 134.05859375 -138.53875 134.05859375 -139.21875 134.05859375 C-139.042229 134.90043213 -138.86570801 135.74227051 -138.68383789 136.60961914 C-138.02419117 139.76078256 -137.36654258 142.91235478 -136.71020508 146.06420898 C-136.42681428 147.4230977 -136.14264899 148.78182516 -135.85766602 150.14038086 C-135.44599512 152.10356799 -135.03742547 154.06740462 -134.62890625 156.03125 C-134.25971069 157.79867554 -134.25971069 157.79867554 -133.88305664 159.60180664 C-133.21697066 163.06785271 -132.71789218 166.56459847 -132.21875 170.05859375 C-140.13875 170.05859375 -148.05875 170.05859375 -156.21875 170.05859375 C-154.72552807 157.84132339 -152.06264219 146.02244191 -149.21875 134.05859375 C-149.858125 133.76984375 -150.4975 133.48109375 -151.15625 133.18359375 C-153.21875 132.05859375 -153.21875 132.05859375 -154.21875 130.05859375 C-154.68069226 122.89848876 -154.68069226 122.89848876 -152.84375 119.55859375 C-151.21875 118.05859375 -151.21875 118.05859375 -149.21875 118.05859375 C-149.21875 106.83859375 -149.21875 95.61859375 -149.21875 84.05859375 C-150.86875 83.72859375 -152.51875 83.39859375 -154.21875 83.05859375 C-156.65205655 82.21106308 -159.0515547 81.33503379 -161.453125 80.40625 C-162.13175598 80.14605576 -162.81038696 79.88586151 -163.50958252 79.61778259 C-164.93574581 79.06930959 -166.36108788 78.51869697 -167.78564453 77.96606445 C-169.97255039 77.11962281 -172.16377786 76.28513257 -174.35546875 75.45117188 C-175.74246575 74.91608527 -177.12919436 74.38030234 -178.515625 73.84375 C-179.1728656 73.59472427 -179.8301062 73.34569855 -180.50726318 73.08912659 C-185.10423996 71.28761384 -185.10423996 71.28761384 -186.21875 69.05859375 C-168.81495017 61.71621663 -151.37773778 54.46122134 -133.89584351 47.30679321 C-120.90482736 41.98981266 -107.93172511 36.63106281 -94.96875 31.24609375 C-82.76731087 26.17777102 -70.56250676 21.1210497 -58.30664062 16.18530273 C-52.60461785 13.88022031 -46.93207725 11.51747271 -41.28437805 9.08279419 C-37.99563852 7.66592433 -34.70187311 6.26092212 -31.40811157 4.85577393 C-29.79735955 4.16430301 -28.18919044 3.46678019 -26.58383179 2.76287842 C-24.33813719 1.77853944 -22.0844065 0.81524036 -19.828125 -0.14453125 C-19.16261124 -0.44283844 -18.49709747 -0.74114563 -17.81141663 -1.04849243 C-11.32927312 -3.76054984 -6.28584163 -2.62767809 0 0 Z " fill="#0D4977" transform="translate(233.21875,276.94140625)"/>
<path d="M0 0 C4.31071298 1.07133987 8.22984339 2.68881774 12.30224609 4.44360352 C13.13720612 4.79732529 13.97216614 5.15104706 14.83242798 5.51548767 C17.48385924 6.6403848 20.13133827 7.77426386 22.77880859 8.90844727 C24.58194014 9.6753205 26.38532301 10.44160309 28.18896484 11.20727539 C32.59685241 13.08000558 37.00121907 14.96079759 41.40380859 16.84594727 C37.91512508 19.82834417 34.02089517 21.36747879 29.79052734 22.99829102 C28.65853661 23.44313843 28.65853661 23.44313843 27.50367737 23.89697266 C25.03521975 24.86521615 22.56339674 25.82451525 20.09130859 26.78344727 C18.38572784 27.44974212 16.68032567 28.11649431 14.97509766 28.78369141 C11.4943046 30.14417728 8.01198008 31.50063169 4.52832031 32.85375977 C0.4522036 34.43715033 -3.62080975 36.0282923 -7.69230652 37.6235199 C-10.56675214 38.74919538 -13.44248488 39.87154802 -16.31869507 40.9927063 C-17.66752212 41.51876042 -19.01601449 42.04567351 -20.36416626 42.57345581 C-22.22664704 43.30178356 -24.09105619 44.02517441 -25.95556641 44.74829102 C-27.00196289 45.1555542 -28.04835938 45.56281738 -29.12646484 45.98242188 C-31.59619141 46.84594727 -31.59619141 46.84594727 -33.59619141 46.84594727 C-33.59619141 70.27594727 -33.59619141 93.70594727 -33.59619141 117.84594727 C-40.19619141 118.83594727 -46.79619141 119.82594727 -53.59619141 120.84594727 C-57.10449317 121.67818245 -60.38644705 122.49076008 -63.78369141 123.59594727 C-64.60208496 123.8541626 -65.42047852 124.11237793 -66.26367188 124.37841797 C-85.63497212 130.63502191 -103.10815117 139.44685272 -118.59619141 152.84594727 C-119.21365234 153.33192383 -119.83111328 153.81790039 -120.46728516 154.31860352 C-125.66849586 158.47725528 -129.57861457 163.56570343 -133.59619141 168.84594727 C-137.5682855 167.29164958 -139.56584214 164.75475997 -142.28369141 161.53344727 C-166.29502259 134.36982524 -201.0071933 123.61078028 -235.59619141 117.84594727 C-235.59619141 99.03594727 -235.59619141 80.22594727 -235.59619141 60.84594727 C-229.19041441 62.76768036 -223.02515475 64.71597973 -216.82666016 67.13891602 C-215.63499992 67.59935303 -215.63499992 67.59935303 -214.41926575 68.0690918 C-211.87274255 69.05381021 -209.32822829 70.043609 -206.78369141 71.03344727 C-205.01106398 71.7198119 -203.23827649 72.40576331 -201.46533203 73.09130859 C-198.01675906 74.42491825 -194.56873534 75.75993184 -191.12109375 77.09594727 C-185.95418074 79.09643758 -180.77763452 81.07092699 -175.59619141 83.03344727 C-161.9012303 88.23045695 -148.25363153 93.55143303 -134.59619141 98.84594727 C-134.10119141 119.14094727 -134.10119141 119.14094727 -133.59619141 139.84594727 C-131.49244141 135.97875977 -131.49244141 135.97875977 -129.34619141 132.03344727 C-120.93643687 116.81719642 -111.65331273 102.3973919 -100.99707031 88.65991211 C-99.67483525 86.94778132 -98.37237808 85.22272447 -97.07666016 83.49047852 C-83.1220229 64.91238456 -66.96873226 48.16068049 -50.59619141 31.72094727 C-49.81937012 30.93945312 -49.04254883 30.15795898 -48.2421875 29.3527832 C-44.10971364 25.23186002 -39.89347407 21.27511776 -35.47119141 17.46704102 C-32.62521091 15.00645371 -29.86164381 12.45873054 -27.09619141 9.90844727 C-26.55994141 9.41538086 -26.02369141 8.92231445 -25.47119141 8.41430664 C-24.17873667 7.22570988 -22.88734341 6.03595903 -21.59619141 4.84594727 C-21.59619141 8.60369433 -22.56150379 9.41114528 -24.84619141 12.34594727 C-28.75277372 17.56865089 -32.30598465 22.95399079 -35.78369141 28.47094727 C-36.28223633 29.25791992 -36.78078125 30.04489258 -37.29443359 30.85571289 C-40.5792028 36.0895179 -43.64938187 41.41501693 -46.59619141 46.84594727 C-46.10892578 46.2980957 -45.62166016 45.75024414 -45.11962891 45.18579102 C-35.85522521 34.82650325 -26.45502516 24.58906549 -16.55322266 14.83422852 C-14.56792779 12.81723233 -12.69921019 10.73465631 -10.84619141 8.59594727 C-10.28544922 7.95270508 -9.72470703 7.30946289 -9.14697266 6.64672852 C-7.76150065 5.03790586 -6.39617646 3.41178307 -5.03369141 1.78344727 C-2.59619141 -0.15405273 -2.59619141 -0.15405273 0 0 Z " fill="#0E4977" transform="translate(358.59619140625,329.154052734375)"/>
<path d="M0 0 C40.59 0 81.18 0 123 0 C123 9.9 123 19.8 123 30 C94.62 30 66.24 30 37 30 C37 41.22 37 52.44 37 64 C62.08 64 87.16 64 113 64 C113 73.57 113 83.14 113 93 C87.92 93 62.84 93 37 93 C37 105.21 37 117.42 37 130 C66.37 130 95.74 130 126 130 C126 139.9 126 149.8 126 160 C84.42 160 42.84 160 0 160 C0 107.2 0 54.4 0 0 Z " fill="#0E4976" transform="translate(451,314)"/>
<path d="M0 0 C11.5236172 9.31890148 19.38292197 22.84409979 21.73046875 37.4140625 C23.38202793 54.98035749 21.89203696 71.83246024 10.67578125 86.15625 C10.03382812 86.90132813 9.391875 87.64640625 8.73046875 88.4140625 C8.04726562 89.24164063 7.3640625 90.06921875 6.66015625 90.921875 C-3.60831886 102.3042186 -18.67195761 109.62642627 -33.94042969 110.58105469 C-46.24067496 111.14987548 -57.74734652 111.18032706 -69.26953125 106.4140625 C-70.831875 105.77791016 -70.831875 105.77791016 -72.42578125 105.12890625 C-79.88440854 101.74803858 -85.54809585 97.22489533 -91.26953125 91.4140625 C-92.25953125 90.42212891 -92.25953125 90.42212891 -93.26953125 89.41015625 C-105.9930446 75.83658059 -107.9719899 58.47661573 -107.40136719 40.68164062 C-106.61023507 27.07416823 -99.66834516 14.06647004 -90.26953125 4.4140625 C-65.07010878 -17.89303028 -27.47631054 -19.20031339 0 0 Z " fill="#3B3C3B" transform="translate(1240.26953125,365.5859375)"/>
<path d="M0 0 C44.88 0 89.76 0 136 0 C136 25 136 25 132 30.9375 C130.35407139 32.31679843 128.68766167 33.67209066 127 35 C125.6635501 36.56705301 124.37146257 38.1729621 123.125 39.8125 C118.23782446 46.0061482 113.11356646 51.99378232 108 58 C106.12335682 60.20694271 104.24833084 62.41524496 102.375 64.625 C101.91561035 65.16688965 101.4562207 65.7087793 100.98291016 66.26708984 C98.14015194 69.62874011 95.33898203 73.02067616 92.5625 76.4375 C88.60491812 81.30129025 84.53457554 86.05881231 80.44165039 90.80834961 C76.66903661 95.19523538 72.99673368 99.65493557 69.3515625 104.1484375 C66.1059122 108.08419284 62.77443212 111.9443599 59.42382812 115.79101562 C55.42401572 120.41289981 51.77063004 125.15204709 48 130 C77.7 130 107.4 130 138 130 C138 139.9 138 149.8 138 160 C91.8 160 45.6 160 -2 160 C-2 134 -2 134 2.9375 127.0625 C4.9351806 125.34765428 6.95537602 123.65859471 9 122 C10.52683704 120.24877982 12.00800407 118.45654166 13.4375 116.625 C16.88302847 112.34736716 20.41260308 108.15827271 24 104 C27.62446871 99.79730422 31.19568144 95.56449832 34.6875 91.25 C37.55278405 87.71752887 40.49875996 84.29924888 43.5625 80.9375 C47.14716149 77.00055281 50.48503868 72.93303131 53.78125 68.75390625 C56.39560449 65.50897682 59.09382441 62.34509013 61.8125 59.1875 C62.57518188 58.30118896 62.57518188 58.30118896 63.35327148 57.39697266 C64.38751858 56.19564861 65.42194295 54.99447716 66.45654297 53.79345703 C68.93739542 50.91077084 71.40987697 48.02114541 73.875 45.125 C74.71804688 44.13757813 75.56109375 43.15015625 76.4296875 42.1328125 C79.40016949 38.51225543 82.1900906 34.74654586 85 31 C56.95 31 28.9 31 0 31 C0 20.77 0 10.54 0 0 Z " fill="#0E4876" transform="translate(599,314)"/>
<path d="M0 0 C9.57 0 19.14 0 29 0 C29.0093457 2.21960449 29.01869141 4.43920898 29.02832031 6.72607422 C29.06220913 14.09029421 29.11782364 21.45423749 29.18390274 28.8182354 C29.22327709 33.27955389 29.25551449 37.74067798 29.27099609 42.20214844 C29.28622928 46.514216 29.32079149 50.82574872 29.36830902 55.13757706 C29.38305454 56.7760056 29.39103706 58.41451054 29.39188385 60.05300522 C29.40265299 70.44980848 29.8449418 79.73156311 36.3125 88.375 C43.51449919 95.40951084 50.89675538 96.32100163 60.6484375 96.2109375 C69.14606248 95.67612194 75.81263774 92.87153403 82 87 C88.35810771 79.09532555 90.07390727 70.11844946 90.20532227 60.16845703 C90.21522186 59.51409164 90.22512146 58.85972626 90.23532104 58.18553162 C90.26666973 56.04299418 90.29158692 53.90043465 90.31640625 51.7578125 C90.33699885 50.26422582 90.3579959 48.77064466 90.37937927 47.27706909 C90.434362 43.36121112 90.4838754 39.44530263 90.53222656 35.52935791 C90.58261626 31.52733915 90.6382108 27.52539301 90.69335938 23.5234375 C90.80064951 15.68235162 90.90167671 7.84120345 91 0 C100.24 0 109.48 0 119 0 C119 39.6 119 79.2 119 120 C110.09 120 101.18 120 92 120 C91.67 115.71 91.34 111.42 91 107 C89.329375 108.5778125 89.329375 108.5778125 87.625 110.1875 C75.14667027 121.02394424 60.15264304 122.95292099 44.19140625 122.1640625 C31.62419788 121.22320198 19.48127814 115.37600639 11 106 C3.4047838 95.86717096 -0.17613914 83.73237151 -0.11352539 71.18041992 C-0.11367142 70.40915771 -0.11381744 69.63789551 -0.1139679 68.84326172 C-0.11327378 66.305635 -0.10550492 63.76808258 -0.09765625 61.23046875 C-0.09579029 59.46641581 -0.09436723 57.70236236 -0.09336853 55.93830872 C-0.08955738 51.3039506 -0.07973909 46.66962401 -0.06866455 42.03527832 C-0.05842026 37.30282009 -0.05386445 32.57035675 -0.04882812 27.83789062 C-0.03811554 18.5585777 -0.02053012 9.27929641 0 0 Z " fill="#3B3B3B" transform="translate(892,354)"/>
<path d="M0 0 C44.55 0 89.1 0 135 0 C135 8.25 135 16.5 135 25 C117.51 25 100.02 25 82 25 C82 69.55 82 114.1 82 160 C72.43 160 62.86 160 53 160 C53 115.45 53 70.9 53 25 C35.51 25 18.02 25 0 25 C0 16.75 0 8.5 0 0 Z " fill="#3A3A3A" transform="translate(748,314)"/>
<path d="M0 0 C9.24 0 18.48 0 28 0 C28 9.57 28 19.14 28 29 C38.89 29 49.78 29 61 29 C61 36.26 61 43.52 61 51 C50.11 51 39.22 51 28 51 C28.06775566 58.66106183 28.13834432 66.32121705 28.2355423 73.98181915 C28.28002302 77.54995031 28.31949404 81.11796894 28.34643555 84.6862793 C28.37765655 88.78983669 28.43243778 92.89279699 28.48828125 96.99609375 C28.49467117 98.26206894 28.5010611 99.52804413 28.50764465 100.8323822 C28.63091241 112.7159931 28.63091241 112.7159931 34.5625 122.5 C40.7427498 126.30323065 48.08671014 125.85308727 55.08203125 124.328125 C57.42016769 123.61899063 59.71582432 122.86623367 62 122 C69.5939781 136.66423358 69.5939781 136.66423358 69 143 C55.44421963 150.08753999 39.37434337 152.95487182 24.4375 148.375 C14.74813589 144.59734094 7.11366579 137.89267854 2.6875 128.4375 C0.243128 122.81647577 -0.12499207 117.24579935 -0.11352539 111.16845703 C-0.11367142 110.51409164 -0.11381744 109.85972626 -0.1139679 109.18553162 C-0.11327647 107.04292374 -0.10552052 104.90040501 -0.09765625 102.7578125 C-0.09578933 101.26423185 -0.09436672 99.77065058 -0.09336853 98.27706909 C-0.08956494 94.36114793 -0.07975324 90.44526432 -0.06866455 86.52935791 C-0.05840388 82.52738961 -0.05386096 78.52541519 -0.04882812 74.5234375 C-0.03812889 66.68227258 -0.02054973 58.8411453 0 51 C-6.6 51 -13.2 51 -20 51 C-20 43.74 -20 36.48 -20 29 C-13.4 29 -6.8 29 0 29 C0 19.43 0 9.86 0 0 Z " fill="#3B3B3B" transform="translate(1053,326)"/>
<path d="M0 0 C0 8.58 0 17.16 0 26 C-4.1765625 26.12375 -4.1765625 26.12375 -8.4375 26.25 C-15.35724552 26.57138868 -21.03409453 27.21987886 -27 31 C-27.61875 31.33773438 -28.2375 31.67546875 -28.875 32.0234375 C-36.02739863 36.37036943 -39.75581534 44.17377262 -42 52 C-42.19477034 54.3633486 -42.29316655 56.73571184 -42.31884766 59.10693359 C-42.32889328 59.79055969 -42.3389389 60.47418579 -42.34928894 61.17852783 C-42.37996409 63.41848985 -42.39711185 65.65833322 -42.4140625 67.8984375 C-42.43278681 69.45928965 -42.45236116 71.02013181 -42.4727478 72.58096313 C-42.52394174 76.67435807 -42.56363532 80.76778577 -42.60089111 84.86132812 C-42.64101093 89.04435244 -42.69206677 93.22724193 -42.7421875 97.41015625 C-42.8387959 105.60668525 -42.92223697 113.80327052 -43 122 C-52.57 122 -62.14 122 -72 122 C-72 82.07 -72 42.14 -72 1 C-63.09 1 -54.18 1 -45 1 C-44.505 8.92 -44.505 8.92 -44 17 C-42.14375 14.958125 -42.14375 14.958125 -40.25 12.875 C-28.57395284 1.2173114 -15.72602385 -0.30535969 0 0 Z " fill="#3C3D3C" transform="translate(1362,353)"/>
<path d="M0 0 C9.30460567 5.96326102 16.38368674 13.68614205 19.2734375 24.45703125 C20.6602036 37.06464301 19.87148332 48.36406923 12.51171875 59.00390625 C7.19192009 65.60779424 0.55702715 69.6367459 -7.7265625 71.45703125 C-18.97087731 72.62603528 -29.36658241 72.47701632 -38.7265625 65.45703125 C-47.1620184 58.28123235 -51.78890747 48.18798304 -52.96484375 37.23828125 C-53.31691402 26.41675303 -49.89640596 15.65588002 -42.7265625 7.45703125 C-31.7636634 -3.08058297 -14.00101341 -6.76158156 0 0 Z " fill="#FCFCFB" transform="translate(1213.7265625,379.54296875)"/>
<path d="M0 0 C0.99 0.495 0.99 0.495 2 1 C-4.83403928 6.88331369 -11.71963483 12.63059864 -18.90429688 18.08300781 C-25.47405897 23.08685887 -31.84061073 28.33992928 -38.23583984 33.56347656 C-40.47910676 35.3901279 -42.73732408 37.1974649 -45 39 C-49.3556629 42.47275826 -53.67889587 45.98443258 -58 49.5 C-67.57209088 57.28214293 -77.21774522 64.95011552 -86.97070312 72.50439453 C-92.16325036 76.53862085 -97.28803441 80.64617967 -102.375 84.8125 C-110.2978901 91.29309036 -118.20895852 97.72537511 -127 103 C-127 92.44 -127 81.88 -127 71 C-124.339375 69.618125 -121.67875 68.23625 -118.9375 66.8125 C-111.15384818 62.73626992 -103.46231292 58.50936873 -95.8125 54.1875 C-94.85786865 53.64907471 -93.9032373 53.11064941 -92.91967773 52.5559082 C-88.76743687 50.19869783 -84.65992885 47.81031241 -80.63671875 45.23828125 C-77.83199848 43.45781036 -75.10178413 42.2040472 -72 41 C-69.60140475 39.63389359 -67.23573442 38.24095166 -64.875 36.8125 C-47.39335829 26.39123858 -29.46862838 16.70017385 -11.51342773 7.1237793 C-10.58216064 6.62402588 -9.65089355 6.12427246 -8.69140625 5.609375 C-7.87873291 5.17592773 -7.06605957 4.74248047 -6.22875977 4.29589844 C-4.01257964 3.00731435 -2.01653321 1.57953596 0 0 Z " fill="#F6BB38" transform="translate(351,311)"/>
<path d="M0 0 C0.33 0 0.66 0 1 0 C1.33 9.24 1.66 18.48 2 28 C2.66 26.35 3.32 24.7 4 23 C4.66 22.67 5.32 22.34 6 22 C6.07476562 22.67546875 6.14953125 23.3509375 6.2265625 24.046875 C7.03266853 30.10079426 7.03266853 30.10079426 11.0625 34.5 C12.031875 34.995 13.00125 35.49 14 36 C15.53214888 39.06429776 15.22938548 41.6165642 15 45 C13.625 47.9375 13.625 47.9375 12 50 C11.34 50 10.68 50 10 50 C9.67 50.99 9.34 51.98 9 53 C7.15234375 54.60546875 7.15234375 54.60546875 4.9375 56.1875 C4.20402344 56.71730469 3.47054687 57.24710937 2.71484375 57.79296875 C2.14894531 58.19128906 1.58304687 58.58960938 1 59 C1 58.34 1 57.68 1 57 C0.34 57 -0.32 57 -1 57 C-0.67 54.69 -0.34 52.38 0 50 C-0.639375 49.71125 -1.27875 49.4225 -1.9375 49.125 C-4 48 -4 48 -5 46 C-5.46194226 38.83989501 -5.46194226 38.83989501 -3.625 35.5 C-2 34 -2 34 0 34 C0 22.78 0 11.56 0 0 Z " fill="#19527E" transform="translate(84,361)"/>
<path d="M0 0 C25.08 0 50.16 0 76 0 C76 0.33 76 0.66 76 1 C51.58 1.66 27.16 2.32 2 3 C2 8.61 2 14.22 2 20 C1.87186078 23.02271271 1.71748471 26.04489959 1.5 29.0625 C1.45230469 29.74892578 1.40460938 30.43535156 1.35546875 31.14257812 C1.24221593 32.76209347 1.12201509 34.38112123 1 36 C2.0855014 35.98525131 3.17100281 35.97050262 4.28939819 35.95530701 C14.50171682 35.81721788 24.71409275 35.68448253 34.92654991 35.5570364 C40.17731027 35.49133627 45.42803179 35.42372677 50.67871094 35.35180664 C55.74256139 35.28251493 60.80645241 35.21816951 65.87041092 35.15730476 C67.8057955 35.13316367 69.74115841 35.10721728 71.6764946 35.07946587 C74.37983559 35.04100524 77.08318132 35.00886975 79.78662109 34.97827148 C80.59294479 34.96532547 81.39926849 34.95237946 82.23002625 34.93904114 C87.77189568 34.88594784 87.77189568 34.88594784 90 36 C90 46.56 90 57.12 90 68 C48.09 68 6.18 68 -37 68 C-37 67.67 -37 67.34 -37 67 C4.58 67 46.16 67 89 67 C89 57.1 89 47.2 89 37 C59.63 37 30.26 37 0 37 C0 24.79 0 12.58 0 0 Z " fill="#C1D8E3" transform="translate(488,407)"/>
<path d="M0 0 C24.75 0 49.5 0 75 0 C75 9.24 75 18.48 75 28 C68.73 28 62.46 28 56 28 C56 27.67 56 27.34 56 27 C61.94 27 67.88 27 74 27 C74 18.42 74 9.84 74 1 C73.67 1.66 73.34 2.32 73 3 C64.07263952 3.06951349 55.14537222 3.12281799 46.21780014 3.15543652 C42.07234894 3.17109187 37.92708291 3.19232757 33.78173828 3.22631836 C29.78116282 3.25891675 25.78076547 3.276854 21.78006744 3.28463173 C20.25382941 3.2901744 18.72760111 3.30099794 17.2014389 3.31719017 C15.06344037 3.33897148 12.92617759 3.34196673 10.78808594 3.34057617 C8.96274323 3.35056892 8.96274323 3.35056892 7.1005249 3.36076355 C4 3 4 3 0 0 Z " fill="#0C3E65" transform="translate(488,378)"/>
<path d="M0 0 C0.66 0.33 1.32 0.66 2 1 C-4.83039545 6.88017677 -11.71145218 12.62598889 -18.89331055 18.07421875 C-24.86206984 22.61911398 -30.66047851 27.37009183 -36.46875 32.1171875 C-37.07460938 32.61057617 -37.68046875 33.10396484 -38.3046875 33.61230469 C-39.82674467 34.85818213 -41.33610226 36.11953624 -42.84375 37.3828125 C-45 39 -45 39 -47 39 C-47 36 -47 36 -45 34 C-44.01 34 -43.02 34 -42 34 C-42 33.34 -42 32.68 -42 32 C-41.01 31.67 -40.02 31.34 -39 31 C-38.071875 29.7934375 -38.071875 29.7934375 -37.125 28.5625 C-34.85319667 25.82297246 -33.34957646 25.0234817 -30 24 C-30.33 23.34 -30.66 22.68 -31 22 C-32.051875 22.680625 -32.051875 22.680625 -33.125 23.375 C-40.19949673 27.37362859 -40.19949673 27.37362859 -44.18359375 26.546875 C-44.78300781 26.36640625 -45.38242187 26.1859375 -46 26 C-45.20529297 25.56244385 -44.41058594 25.1248877 -43.59179688 24.67407227 C-25.39518082 14.66464711 -25.39518082 14.66464711 -7.25 4.5625 C-6.60869141 4.20422119 -5.96738281 3.84594238 -5.30664062 3.47680664 C-2.48183947 1.97686488 -2.48183947 1.97686488 0 0 Z " fill="#EBC260" transform="translate(351,311)"/>
<path d="M0 0 C-5.60513125 4.42632813 -11.39787373 8.13899259 -17.625 11.625 C-18.52001221 12.13063477 -19.41502441 12.63626953 -20.3371582 13.15722656 C-23.2199612 14.7802564 -26.10886753 16.39185815 -29 18 C-30.01852051 18.56750977 -31.03704102 19.13501953 -32.08642578 19.71972656 C-35.11627463 21.40355827 -38.15061928 23.07888832 -41.1875 24.75 C-42.1377002 25.2754541 -43.08790039 25.8009082 -44.06689453 26.34228516 C-44.94587402 26.8222998 -45.82485352 27.30231445 -46.73046875 27.796875 C-47.50801514 28.22323242 -48.28556152 28.64958984 -49.08666992 29.08886719 C-51 30 -51 30 -53 30 C-53 40.56 -53 51.12 -53 62 C-53.66 62 -54.32 62 -55 62 C-55.79585256 51.312837 -56.12825004 40.71600323 -56 30 C-55.34 30 -54.68 30 -54 30 C-54 29.34 -54 28.68 -54 28 C-52.89140625 27.46890625 -51.7828125 26.9378125 -50.640625 26.390625 C-49.17687294 25.67751502 -47.71334286 24.96394929 -46.25 24.25 C-45.52039063 23.90195312 -44.79078125 23.55390625 -44.0390625 23.1953125 C-39.9794532 21.20241339 -37.15635096 19.28367722 -34 16 C-31.30078125 14.5078125 -31.30078125 14.5078125 -28.3125 13.125 C-23.64376884 10.87562346 -19.42736501 8.39098905 -15.1640625 5.4609375 C-12.87753216 3.91732315 -10.5640642 2.46366652 -8.1875 1.0625 C-7.47980469 0.64097656 -6.77210938 0.21945312 -6.04296875 -0.21484375 C-3.56761119 -1.1661762 -2.48719817 -0.72939219 0 0 Z " fill="#345155" transform="translate(277,352)"/>
<path d="M0 0 C-0.18521281 7.22329954 -5.03382956 11.983873 -9.85546875 16.88671875 C-15.07123553 21.6723192 -20.95874146 25.34637122 -27 29 C-23.79930985 18.06566258 -16.06506453 7.50915335 -6.25 1.5625 C-3 0 -3 0 0 0 Z " fill="#EFBD4E" transform="translate(394,270)"/>
<path d="M0 0 C9.24 0 18.48 0 28 0 C27.67 1.98 27.34 3.96 27 6 C26.67 5.34 26.34 4.68 26 4 C18.08 4 10.16 4 2 4 C1.67 24.79 1.34 45.58 1 67 C0.67 67 0.34 67 0 67 C0 44.89 0 22.78 0 0 Z " fill="#2F302F" transform="translate(983,354)"/>
<path d="M0 0 C3.01976328 1.07684957 5.9548065 2.32925473 8.8984375 3.59765625 C10.15087753 4.12823891 10.15087753 4.12823891 11.42861938 4.66954041 C14.08005065 5.79443754 16.72752967 6.92831659 19.375 8.0625 C21.17813155 8.82937324 22.98151442 9.59565582 24.78515625 10.36132812 C29.19304382 12.23405831 33.59741048 14.11485032 38 16 C35.06471771 18.26970829 32.39906281 19.82480333 28.9375 21.1875 C28.08027344 21.53167969 27.22304688 21.87585938 26.33984375 22.23046875 C24 23 24 23 21 23 C21 22.34 21 21.68 21 21 C21.804375 20.87625 22.60875 20.7525 23.4375 20.625 C24.283125 20.41875 25.12875 20.2125 26 20 C26.33 19.34 26.66 18.68 27 18 C27.99 18.33 28.98 18.66 30 19 C29.505 17.515 29.505 17.515 29 16 C28.34 15.67 27.68 15.34 27 15 C27 14.34 27 13.68 27 13 C25.60432165 12.68680856 24.20844918 12.37448212 22.8125 12.0625 C21.58273437 11.7840625 21.58273437 11.7840625 20.328125 11.5 C18.58506017 11.12565051 16.82586015 10.82512811 15.0625 10.5625 C13 10 13 10 11 7 C7.85185142 5.63640243 7.85185142 5.63640243 4.1875 4.625 C2.35251953 4.05652344 2.35251953 4.05652344 0.48046875 3.4765625 C-2.9828491 2.68703647 -2.9828491 2.68703647 -5.84375 4.29296875 C-7.98774307 5.92277384 -7.98774307 5.92277384 -9.6875 7.6875 C-10.120625 8.120625 -10.55375 8.55375 -11 9 C-11.66 9 -12.32 9 -13 9 C-12.41473513 5.83956971 -11.52015053 4.02262642 -9.3125 1.6875 C-8.83425781 1.15511719 -8.35601562 0.62273437 -7.86328125 0.07421875 C-4.99587142 -1.57890012 -3.20228259 -0.73732733 0 0 Z " fill="#1A4567" transform="translate(362,330)"/>
<path d="M0 0 C0 3.82244823 -1.12680314 4.80814366 -3.4375 7.8125 C-7.24566723 12.88326813 -10.69449779 18.09846321 -14.02905273 23.49145508 C-16.79093215 27.89546608 -16.79093215 27.89546608 -19 29 C-19.66 28.34 -20.32 27.68 -21 27 C-22.31747324 26.30251417 -23.64914193 25.63040043 -25 25 C-23.40225601 20.79593614 -20.27037245 18.23175741 -17 15.3125 C-16.42419189 14.79010742 -15.84838379 14.26771484 -15.25512695 13.72949219 C-13.50851507 12.14723607 -11.75479076 10.57317466 -10 9 C-8.97223884 8.07207669 -7.94486876 7.14371996 -6.91796875 6.21484375 C-4.61690752 4.13763397 -2.31116026 2.06595816 0 0 Z " fill="#10395B" transform="translate(337,334)"/>
<path d="M0 0 C0 0.66 0 1.32 0 2 C-0.99 2 -1.98 2 -3 2 C-2.9278125 2.87140625 -2.855625 3.7428125 -2.78125 4.640625 C-2.17288341 12.44799618 -1.8709351 20.170063 -2 28 C1.27773504 27.24849977 1.27773504 27.24849977 3 24 C5.625 23.3125 5.625 23.3125 8 23 C8 22.34 8 21.68 8 21 C8.66 21 9.32 21 10 21 C10 20.01 10 19.02 10 18 C11.32 18 12.64 18 14 18 C14 17.34 14 16.68 14 16 C14.66 16 15.32 16 16 16 C16.33 15.01 16.66 14.02 17 13 C19 11 19 11 21 10.5625 C23.38640738 10.12541292 23.38640738 10.12541292 25 7 C25.99 6.67 26.98 6.34 28 6 C28.2475 5.34 28.495 4.68 28.75 4 C29.36875 3.01 29.36875 3.01 30 2 C33.625 1.25 33.625 1.25 37 1 C33.86463694 4.28682987 30.4596081 7.10114124 26.875 9.875 C26.27824463 10.33970703 25.68148926 10.80441406 25.06665039 11.28320312 C23.75860764 12.30147796 22.44973121 13.31868256 21.14013672 14.33496094 C18.83915597 16.12513761 16.54615076 17.92521524 14.25390625 19.7265625 C12.64854945 20.98451789 11.04308212 22.24233222 9.4375 23.5 C8.67614746 24.09925293 7.91479492 24.69850586 7.13037109 25.31591797 C6.40543457 25.88197754 5.68049805 26.44803711 4.93359375 27.03125 C3.9753772 27.78245117 3.9753772 27.78245117 2.99780273 28.54882812 C0.7611061 30.1735287 -1.62946026 31.57767615 -4 33 C-4 22.44 -4 11.88 -4 1 C-2 0 -2 0 0 0 Z " fill="#DCBE6D" transform="translate(228,381)"/>
<path d="M0 0 C1.32 0.33 2.64 0.66 4 1 C4.33 1.99 4.66 2.98 5 4 C4.34 4.66 3.68 5.32 3 6 C2.70806254 8.14219882 2.70806254 8.14219882 2.77294922 10.63330078 C2.77310028 11.59414581 2.77325134 12.55499084 2.77340698 13.54495239 C2.78372955 14.58457123 2.79405212 15.62419006 2.8046875 16.6953125 C2.8075174 17.75789276 2.81034729 18.82047302 2.81326294 19.91525269 C2.82448361 23.31861499 2.84959163 26.72171686 2.875 30.125 C2.88502736 32.42838162 2.89415363 34.73176736 2.90234375 37.03515625 C2.92442907 42.69019345 2.95792511 48.34507813 3 54 C4.7015625 54.185625 4.7015625 54.185625 6.4375 54.375 C7.613125 54.58125 8.78875 54.7875 10 55 C10.33 55.66 10.66 56.32 11 57 C7.37 57 3.74 57 0 57 C0 38.19 0 19.38 0 0 Z " fill="#1A4566" transform="translate(123,390)"/>
<path d="M0 0 C0.495 0.99 0.495 0.99 1 2 C-0.0415625 2.3403125 -1.083125 2.680625 -2.15625 3.03125 C-21.09051074 9.37162172 -37.57279705 18.23175182 -53 31 C-54.66461762 32.33589061 -56.33074693 33.66990612 -58 35 C-57.8125 32.6875 -57.8125 32.6875 -57 30 C-54.6875 28.3125 -54.6875 28.3125 -52 27 C-51.236875 26.608125 -50.47375 26.21625 -49.6875 25.8125 C-49.130625 25.544375 -48.57375 25.27625 -48 25 C-48 24.34 -48 23.68 -48 23 C-47.34 23 -46.68 23 -46 23 C-46 22.34 -46 21.68 -46 21 C-45.071875 20.566875 -44.14375 20.13375 -43.1875 19.6875 C-40.08654089 18.24583739 -40.08654089 18.24583739 -38.375 16.375 C-36.6665452 14.6665452 -35.31009987 14.57752497 -33 14 C-32.319375 13.2575 -32.319375 13.2575 -31.625 12.5 C-29.30745317 10.36072601 -27.06440101 10.340489 -24 10 C-24 9.34 -24 8.68 -24 8 C-22.73160474 7.49384702 -21.46016898 6.99530901 -20.1875 6.5 C-19.12595703 6.08234375 -19.12595703 6.08234375 -18.04296875 5.65625 C-16 5 -16 5 -13 5 C-13 4.34 -13 3.68 -13 3 C-4.57142857 -0.42857143 -4.57142857 -0.42857143 0 0 Z " fill="#224D6D" transform="translate(293,451)"/>
<path d="M0 0 C0.66 0 1.32 0 2 0 C2 9.24 2 18.48 2 28 C-0.3129482 25.6870518 -0.49580975 24.52095125 -1.125 21.375 C-1.29257813 20.55773437 -1.46015625 19.74046875 -1.6328125 18.8984375 C-1.75398438 18.27195312 -1.87515625 17.64546875 -2 17 C-3.4216319 20.3171411 -4.39009109 23.44219804 -5 27 C-5.33 27 -5.66 27 -6 27 C-6 18.75 -6 10.5 -6 2 C-5.34 2 -4.68 2 -4 2 C-3.67 4.64 -3.34 7.28 -3 10 C-1.11608215 6.73454239 -0.50712033 3.71888239 0 0 Z " fill="#0F3F67" transform="translate(91,367)"/>
<path d="M0 0 C-5.9587807 4.75149472 -12.23078363 8.59710603 -18.875 12.3125 C-19.82375 12.84939453 -20.7725 13.38628906 -21.75 13.93945312 C-30.94279234 19.13167843 -30.94279234 19.13167843 -37 19 C-34.5033875 16.12125293 -31.80216535 14.79481398 -28.375 13.1875 C-23.693813 10.91168827 -19.4462348 8.40395774 -15.1640625 5.4609375 C-12.87753216 3.91732315 -10.5640642 2.46366652 -8.1875 1.0625 C-7.47980469 0.64097656 -6.77210938 0.21945312 -6.04296875 -0.21484375 C-3.56761119 -1.1661762 -2.48719817 -0.72939219 0 0 Z " fill="#244654" transform="translate(277,352)"/>
<path d="M0 0 C0.6909375 -0.020625 1.381875 -0.04125 2.09375 -0.0625 C7.19852042 -0.10088173 10.67946746 0.97669847 15.25 3.25 C15.25 3.91 15.25 4.57 15.25 5.25 C7.30653941 7.8978202 -2.19414174 6.70320147 -9.75 3.25 C-10.08 2.59 -10.41 1.93 -10.75 1.25 C-7.12762495 0.04254165 -3.7729405 0.02753971 0 0 Z " fill="#E2BF6C" transform="translate(380.75,314.75)"/>
<path d="M0 0 C3.30440486 1.39959297 3.92249915 1.85883774 5.75 5.1875 C7.91217525 11.4870268 7.2310059 18.42916539 7 25 C6.34 25 5.68 25 5 25 C1.48624709 16.40385448 -0.86477331 9.41642046 0 0 Z " fill="#E2BF6C" transform="translate(342,271)"/>
<path d="M0 0 C-3.56288924 3.00199917 -7.16593938 5.33829803 -11.25390625 7.56640625 C-11.83663803 7.88657211 -12.41936981 8.20673798 -13.01976013 8.53660583 C-14.86489048 9.54979037 -16.7133551 10.55666371 -18.5625 11.5625 C-20.41486735 12.57250939 -22.26639738 13.58395332 -24.11595154 14.59910583 C-25.79098972 15.51816809 -27.46878577 16.43219869 -29.14672852 17.34594727 C-31.5902692 18.76247744 -33.79244192 20.2456161 -36 22 C-36.66 21.67 -37.32 21.34 -38 21 C-31.36198429 14.92252784 -25.45588278 9.76780237 -16.8828125 6.78515625 C-14.19677547 5.66504537 -12.21774537 3.85811099 -10 2 C-6.51719733 0.25859866 -3.88181103 -0.22181777 0 0 Z " fill="#F4F4DC" transform="translate(312,333)"/>
<path d="M0 0 C2.25 -0.375 2.25 -0.375 5 0 C8.4058974 4.25737175 10.13617253 7.79967335 10.09765625 13.23046875 C10.09443359 14.03291016 10.09121094 14.83535156 10.08789062 15.66210938 C10.07951172 16.49548828 10.07113281 17.32886719 10.0625 18.1875 C10.05798828 19.03248047 10.05347656 19.87746094 10.04882812 20.74804688 C10.03705403 22.83206155 10.0191189 24.91603977 10 27 C8.68 27.33 7.36 27.66 6 28 C6.66 27.67 7.32 27.34 8 27 C7.70383275 15.13695189 7.70383275 15.13695189 4 4 C3.01 3.34 2.02 2.68 1 2 C1.33 6.95 1.66 11.9 2 17 C-0.30436237 14.69563763 -0.93312794 13.08568756 -1.1328125 9.84375 C-1.13023437 9.0703125 -1.12765625 8.296875 -1.125 7.5 C-1.12757813 6.7265625 -1.13015625 5.953125 -1.1328125 5.15625 C-1 3 -1 3 0 0 Z " fill="#FEF9DB" transform="translate(341,269)"/>
<path d="M0 0 C0.98613281 0.00322266 1.97226563 0.00644531 2.98828125 0.00976562 C4.02082031 0.01814453 5.05335937 0.02652344 6.1171875 0.03515625 C7.67759766 0.04192383 7.67759766 0.04192383 9.26953125 0.04882812 C11.84380712 0.06063673 14.41796896 0.0771055 16.9921875 0.09765625 C16.9921875 1.41765625 16.9921875 2.73765625 16.9921875 4.09765625 C8.7421875 4.09765625 0.4921875 4.09765625 -8.0078125 4.09765625 C-7.6778125 3.10765625 -7.3478125 2.11765625 -7.0078125 1.09765625 C-4.50284246 -0.15482877 -2.79927976 -0.01608781 0 0 Z " fill="#323332" transform="translate(1299.0078125,353.90234375)"/>
<path d="M0 0 C27.72 0 55.44 0 84 0 C83.34 1.32 82.68 2.64 82 4 C81.505 2.515 81.505 2.515 81 1 C79.07474487 1.04543945 79.07474487 1.04543945 77.1105957 1.09179688 C72.24053366 1.20607885 67.37040127 1.31709714 62.50024414 1.42724609 C60.41265929 1.47489106 58.32509309 1.52336223 56.23754883 1.57275391 C45.32521198 1.83038075 34.41570943 2.04641119 23.5 2.0625 C22.6620137 2.06479614 21.8240274 2.06709229 20.96064758 2.06945801 C13.94173116 2.06056953 6.98991041 1.65787392 0 1 C0 0.67 0 0.34 0 0 Z " fill="#EBFCFE" transform="translate(600,345)"/>
<path d="M0 0 C0.66 0.33 1.32 0.66 2 1 C-2.31121599 4.69345029 -6.64287731 8.3608123 -11 12 C-11.8146875 12.68191406 -12.629375 13.36382812 -13.46875 14.06640625 C-14.1390625 14.60136719 -14.809375 15.13632812 -15.5 15.6875 C-16.0671875 16.14511719 -16.634375 16.60273438 -17.21875 17.07421875 C-19.55681055 18.28939496 -21.4048352 18.16441969 -24 18 C-23.505 16.515 -23.505 16.515 -23 15 C-22.34 15 -21.68 15 -21 15 C-21 14.01 -21 13.02 -21 12 C-20.39937744 11.67201416 -19.79875488 11.34402832 -19.17993164 11.00610352 C-16.47313901 9.52669094 -13.76780439 8.04463214 -11.0625 6.5625 C-10.11697266 6.04623047 -9.17144531 5.52996094 -8.19726562 4.99804688 C-6.84858398 4.25844727 -6.84858398 4.25844727 -5.47265625 3.50390625 C-4.22367554 2.82050171 -4.22367554 2.82050171 -2.94946289 2.12329102 C-1.06093156 1.14748115 -1.06093156 1.14748115 0 0 Z " fill="#E6BA54" transform="translate(351,311)"/>
<path d="M0 0 C6.00825758 0.39510084 10.54506408 1.48233727 16 4 C18.77888613 4.69140522 18.77888613 4.69140522 21 5 C21 5.66 21 6.32 21 7 C25.98283716 8.14051606 30.94468132 9.22225866 36 10 C35.67 10.99 35.34 11.98 35 13 C35.99 13 36.98 13 38 13 C38 13.66 38 14.32 38 15 C29.55966227 12.69842556 21.488484 9.55104064 13.375 6.3125 C12.07176467 5.79584522 10.76838015 5.27956658 9.46484375 4.76367188 C6.30841474 3.51279075 3.15353412 2.25815732 0 1 C0 0.67 0 0.34 0 0 Z " fill="#295474" transform="translate(113,372)"/>
<path d="M0 0 C0.33 0 0.66 0 1 0 C0.95524679 4.92285361 0.09924609 7.33228485 -3.31640625 10.9296875 C-4.7158425 12.26172881 -6.13186595 13.57652317 -7.5625 14.875 C-8.25408203 15.55046875 -8.94566406 16.2259375 -9.65820312 16.921875 C-14.39720434 21.32079878 -17.50674242 22.89774398 -24 23 C-20.96571157 19.78423498 -17.7155141 17.25933135 -14.125 14.6875 C-8.26052368 10.34635717 -4.05400076 6.08100114 0 0 Z " fill="#FEF8D5" transform="translate(392,276)"/>
<path d="M0 0 C-7.51245458 3.17599706 -15.06125926 6.26098725 -22.625 9.3125 C-23.51413086 9.67408203 -24.40326172 10.03566406 -25.31933594 10.40820312 C-26.1549707 10.74400391 -26.99060547 11.07980469 -27.8515625 11.42578125 C-28.60260254 11.72911377 -29.35364258 12.03244629 -30.12744141 12.3449707 C-32 13 -32 13 -34 13 C-33.375 11.0625 -33.375 11.0625 -32 9 C-28.875 8.25 -28.875 8.25 -26 8 C-26 7.34 -26 6.68 -26 6 C-24.39658445 5.66307215 -22.79223445 5.33058907 -21.1875 5 C-20.29417969 4.814375 -19.40085937 4.62875 -18.48046875 4.4375 C-16 4 -16 4 -13 4 C-12.67 2.68 -12.34 1.36 -12 0 C-10.56359829 -0.19573608 -9.12580496 -0.38127816 -7.6875 -0.5625 C-6.88699219 -0.66691406 -6.08648437 -0.77132813 -5.26171875 -0.87890625 C-3 -1 -3 -1 0 0 Z " fill="#1A4669" transform="translate(359,363)"/>
<path d="M0 0 C0.33 0 0.66 0 1 0 C1 18.81 1 37.62 1 57 C3.64 57 6.28 57 9 57 C10.32 57.66 11.64 58.32 13 59 C7.555 59.495 7.555 59.495 2 60 C2 59.34 2 58.68 2 58 C1.34 58 0.68 58 0 58 C0 38.86 0 19.72 0 0 Z " fill="#C9E2F4" transform="translate(122,390)"/>
<path d="M0 0 C0 3 0 3 -1.9375 5.125 C-2.39640625 5.55039062 -2.8553125 5.97578125 -3.328125 6.4140625 C-4.59201956 7.61299052 -5.80236735 8.86870481 -6.984375 10.1484375 C-12.03611075 15.54053842 -16.98386156 19.47976255 -24 22 C-24.99 22 -25.98 22 -27 22 C-18.32994515 14.2502303 -9.1972256 7.10896665 0 0 Z " fill="#FEFAE0" transform="translate(352,312)"/>
<path d="M0 0 C0.99 0.33 1.98 0.66 3 1 C-0.12943033 3.48396483 -3.38684402 5.39227894 -6.90234375 7.28515625 C-8.03994141 7.89810547 -9.17753906 8.51105469 -10.34960938 9.14257812 C-10.93895264 9.45783447 -11.5282959 9.77309082 -12.13549805 10.09790039 C-13.93066698 11.05884233 -15.72232723 12.02609198 -17.51367188 12.99414062 C-27.12427007 18.15568997 -27.12427007 18.15568997 -32 20 C-32 19.34 -32 18.68 -32 18 C-31.01 18 -30.02 18 -29 18 C-29 17.34 -29 16.68 -29 16 C-27.35 15.67 -25.7 15.34 -24 15 C-23.67 14.01 -23.34 13.02 -23 12 C-20.3828125 10.39453125 -20.3828125 10.39453125 -17.125 8.8125 C-16.05507813 8.28269531 -14.98515625 7.75289063 -13.8828125 7.20703125 C-11 6 -11 6 -8 6 C-8 5.34 -8 4.68 -8 4 C-6.68 4 -5.36 4 -4 4 C-4 3.34 -4 2.68 -4 2 C-2.68 2 -1.36 2 0 2 C0 1.34 0 0.68 0 0 Z " fill="#FEF8D4" transform="translate(344,313)"/>
<path d="M0 0 C0.33 0 0.66 0 1 0 C1 23.1 1 46.2 1 70 C-0.98 70 -2.96 70 -5 70 C-5 69.34 -5 68.68 -5 68 C-3.02 67.505 -3.02 67.505 -1 67 C-0.67 44.89 -0.34 22.78 0 0 Z " fill="#0F3B5D" transform="translate(323,377)"/>
<path d="M0 0 C1.67542976 0.28604898 3.34385343 0.61781233 5 1 C5 2.32 5 3.64 5 5 C-7.87 5 -20.74 5 -34 5 C-34 4.01 -34 3.02 -34 2 C-32.02 2 -30.04 2 -28 2 C-28 2.66 -28 3.32 -28 4 C-21.73 3.67 -15.46 3.34 -9 3 C-9 2.67 -9 2.34 -9 2 C-6.94921875 1.77213542 -4.8984375 1.54427083 -2.84765625 1.31640625 C-0.98859771 1.18113386 -0.98859771 1.18113386 0 0 Z " fill="#0B3E65" transform="translate(569,338)"/>
<path d="M0 0 C0.66 0.33 1.32 0.66 2 1 C-2.41461667 6.52160513 -7.21196327 11.25791596 -12.75 15.625 C-13.58180786 16.29958252 -13.58180786 16.29958252 -14.43041992 16.98779297 C-18.43133601 20.05389299 -18.43133601 20.05389299 -21.390625 19.7734375 C-22.18726563 19.39058594 -22.18726563 19.39058594 -23 19 C-15.42784342 12.54349031 -7.818133 6.15920636 0 0 Z " fill="#FEF6CE" transform="translate(293,359)"/>
<path d="M0 0 C-0.50789063 0.35191406 -1.01578125 0.70382812 -1.5390625 1.06640625 C-11.30863462 8.07342146 -16.3311577 16.62630634 -22 27 C-23.21386936 23.35839192 -22.6674695 22.66834531 -21.0625 19.3125 C-20.49208984 18.10013672 -20.49208984 18.10013672 -19.91015625 16.86328125 C-19.45962891 15.94095703 -19.45962891 15.94095703 -19 15 C-18.34 15 -17.68 15 -17 15 C-17 14.01 -17 13.02 -17 12 C-16.34 12 -15.68 12 -15 12 C-15 11.01 -15 10.02 -15 9 C-14.34 9 -13.68 9 -13 9 C-13 7.35 -13 5.7 -13 4 C-10.35261084 2.5393715 -9.10551666 2 -6 2 C-6 1.34 -6 0.68 -6 0 C-3 -1 -3 -1 0 0 Z " fill="#FEF6CE" transform="translate(389,272)"/>
<path d="M0 0 C5.05255964 0.63156995 9.29593201 2.13459373 14 4 C14 4.66 14 5.32 14 6 C14.721875 6.12375 15.44375 6.2475 16.1875 6.375 C19.83261745 7.1850261 23.07292814 8.60599446 26.5 10.0625 C28.99334215 10.99750331 31.37963467 11.55079451 34 12 C32.44824219 13.15185547 32.44824219 13.15185547 30 14 C27.45002741 13.32420821 25.24521537 12.57329282 22.828125 11.5703125 C22.1457074 11.30113007 21.46328979 11.03194763 20.76019287 10.75460815 C18.58409283 9.89240041 16.41728327 9.00910559 14.25 8.125 C12.77530164 7.53635038 11.30004652 6.94909352 9.82421875 6.36328125 C6.2094893 4.92492945 2.60294457 3.4676087 -1 2 C-0.67 1.34 -0.34 0.68 0 0 Z " fill="#234D6C" transform="translate(177,395)"/>
<path d="M0 0 C-0.77601563 0.59425781 -1.55203125 1.18851562 -2.3515625 1.80078125 C-3.44278277 2.63792381 -4.53392205 3.47517196 -5.625 4.3125 C-6.20096924 4.75384277 -6.77693848 5.19518555 -7.37036133 5.64990234 C-10.57282355 8.11028331 -13.75499016 10.59246213 -16.91015625 13.11328125 C-17.54163574 13.61625732 -18.17311523 14.1192334 -18.82373047 14.63745117 C-20.05384862 15.61925755 -21.28081599 16.60502628 -22.50439453 17.5949707 C-26.7780726 21 -26.7780726 21 -29 21 C-29 20.34 -29 19.68 -29 19 C-28.34 19 -27.68 19 -27 19 C-27 18.01 -27 17.02 -27 16 C-25.68 16 -24.36 16 -23 16 C-23 15.34 -23 14.68 -23 14 C-22.34 14 -21.68 14 -21 14 C-20.67 13.01 -20.34 12.02 -20 11 C-18 9 -18 9 -16 8.5625 C-13.61359262 8.12541292 -13.61359262 8.12541292 -12 5 C-11.01 4.67 -10.02 4.34 -9 4 C-8.690625 3.34 -8.38125 2.68 -8.0625 2 C-7 0 -7 0 -5.0625 -0.8125 C-3 -1 -3 -1 0 0 Z " fill="#E8BE59" transform="translate(265,383)"/>
<path d="M0 0 C0.66 0.33 1.32 0.66 2 1 C-1.78690862 5.63896306 -5.69575572 9.6493125 -10.265625 13.51953125 C-12.08980537 15.03731592 -12.08980537 15.03731592 -14 17 C-16.63233792 17.8563027 -19.29546818 18.38929927 -22 19 C-18.32306791 15.21997635 -14.47845577 11.7602886 -10.4375 8.375 C-9.59155273 7.65957031 -9.59155273 7.65957031 -8.72851562 6.9296875 C-5.88021875 4.53112171 -3.0099366 2.19305894 0 0 Z " fill="#FDF4C7" transform="translate(323,335)"/>
<path d="M0 0 C8.58 0 17.16 0 26 0 C25.67 0.99 25.34 1.98 25 3 C16.75 3 8.5 3 0 3 C0 2.01 0 1.02 0 0 Z " fill="#3B3C3B" transform="translate(1184,353)"/>
<path d="M0 0 C-0.16358214 6.37970339 -3.86320941 10.48385307 -8 15 C-8.99 15.66 -9.98 16.32 -11 17 C-10.67 15.68 -10.34 14.36 -10 13 C-9.34 13 -8.68 13 -8 13 C-7.34 11.35 -6.68 9.7 -6 8 C-5.34 8 -4.68 8 -4 8 C-4 7.01 -4 6.02 -4 5 C-9.98808129 6.31445687 -13.03429323 9.61191026 -17 14 C-17 11 -17 11 -15.71484375 9.31640625 C-6.27394209 0 -6.27394209 0 0 0 Z " fill="#E6BD5E" transform="translate(394,270)"/>
<path d="M0 0 C1.3921875 0.3403125 1.3921875 0.3403125 2.8125 0.6875 C3.1425 1.6775 3.4725 2.6675 3.8125 3.6875 C2.81640625 5.51171875 2.81640625 5.51171875 1.375 7.375 C0.90191406 7.99761719 0.42882812 8.62023437 -0.05859375 9.26171875 C-0.43113281 9.73222656 -0.80367188 10.20273437 -1.1875 10.6875 C-1.97125 10.213125 -2.755 9.73875 -3.5625 9.25 C-5.07698678 8.34851977 -6.6110897 7.47570515 -8.1875 6.6875 C-4.97117876 -0.48737047 -4.97117876 -0.48737047 0 0 Z " fill="#113E65" transform="translate(320.1875,352.3125)"/>
<path d="M0 0 C0.33 0.99 0.66 1.98 1 3 C0.67 3.33 0.34 3.66 0 4 C-0.36760731 6.32817964 -0.70241581 8.6618385 -1 11 C-0.34 11 0.32 11 1 11 C1.66 12.98 2.32 14.96 3 17 C3.66 17 4.32 17 5 17 C6.625 19 6.625 19 8 21 C6.35 22.32 4.7 23.64 3 25 C3 24.34 3 23.68 3 23 C2.34 23 1.68 23 1 23 C1.33 20.69 1.66 18.38 2 16 C1.360625 15.71125 0.72125 15.4225 0.0625 15.125 C-2 14 -2 14 -3 12 C-3.46601942 4.77669903 -3.46601942 4.77669903 -1.5 1.5 C-1.005 1.005 -0.51 0.51 0 0 Z " fill="#1E527A" transform="translate(82,395)"/>
<path d="M0 0 C-0.99774172 2.55872472 -1.64338111 3.78313716 -4.0234375 5.23046875 C-4.79945313 5.54628906 -5.57546875 5.86210937 -6.375 6.1875 C-7.53128906 6.67283203 -7.53128906 6.67283203 -8.7109375 7.16796875 C-10.79519401 7.92555687 -12.83877392 8.51150369 -15 9 C-15 9.99 -15 10.98 -15 12 C-16.32 12 -17.64 12 -19 12 C-19 12.66 -19 13.32 -19 14 C-21.64 14.33 -24.28 14.66 -27 15 C-24.08158711 11.77438575 -20.78876763 9.67807487 -16.72265625 8.13671875 C-12.44441708 6.35053855 -8.60575967 3.85428143 -4.64453125 1.4609375 C-2 0 -2 0 0 0 Z " fill="#EBC468" transform="translate(293,345)"/>
<path d="M0 0 C-0.33 0.99 -0.66 1.98 -1 3 C1.52956528 6.0916909 4.22454612 6.90931332 8 8 C7.67 8.66 7.34 9.32 7 10 C0.5811453 8.26375242 -5.13784836 6.14819255 -11 3 C-7.18178484 -0.02823961 -4.81391924 -1.49397494 0 0 Z " fill="#1F4C71" transform="translate(58,344)"/>
<path d="M0 0 C0.66 0.33 1.32 0.66 2 1 C-14.85106383 13 -14.85106383 13 -21 13 C-21 13.66 -21 14.32 -21 15 C-26.45769231 18.10096154 -26.45769231 18.10096154 -29.203125 17.58984375 C-29.79609375 17.39519531 -30.3890625 17.20054687 -31 17 C-30.30962646 16.62713867 -29.61925293 16.25427734 -28.90795898 15.87011719 C-25.75067112 14.16427641 -22.59408067 12.45714901 -19.4375 10.75 C-18.35146484 10.16347656 -17.26542969 9.57695312 -16.14648438 8.97265625 C-15.08623047 8.39902344 -14.02597656 7.82539063 -12.93359375 7.234375 C-11.9060498 6.67943359 -10.87850586 6.12449219 -9.81982422 5.55273438 C-7.46175168 4.25426326 -5.15275032 2.90453831 -2.84765625 1.515625 C-1.90792969 1.01546875 -0.96820313 0.5153125 0 0 Z " fill="#CDB56B" transform="translate(259,363)"/>
<path d="M0 0 C0 0.99 0 1.98 0 3 C-1.33333333 4.33333333 -2.66666667 5.66666667 -4 7 C-5.44966154 9.27878451 -6.70507652 11.62597363 -8 14 C-10.02041177 17.03061766 -10.75685563 17.72239767 -14 19 C-14.99 19 -15.98 19 -17 19 C-15.60652624 15.84795019 -13.97514921 13.73828227 -11.5234375 11.328125 C-10.51796875 10.33232422 -10.51796875 10.33232422 -9.4921875 9.31640625 C-8.79351562 8.63449219 -8.09484375 7.95257813 -7.375 7.25 C-6.66859375 6.55261719 -5.9621875 5.85523438 -5.234375 5.13671875 C-3.49401297 3.41987512 -1.74915019 1.70788168 0 0 Z " fill="#1A4568" transform="translate(345,341)"/>
<path d="M0 0 C0 0.99 0 1.98 0 3 C-1.02480469 3.33773438 -2.04960937 3.67546875 -3.10546875 4.0234375 C-4.46617263 4.4738774 -5.82684822 4.92440276 -7.1875 5.375 C-8.19780273 5.70757812 -8.19780273 5.70757812 -9.22851562 6.046875 C-12.12711138 7.00836042 -14.98728802 7.99477396 -17.8125 9.15625 C-20.33177061 10.12796866 -22.32272692 10.15298703 -25 10 C-22.99865303 7.99865303 -21.79264495 7.35746543 -19.2265625 6.30859375 C-18.4840625 6.00373047 -17.7415625 5.69886719 -16.9765625 5.38476562 C-16.20054687 5.07216797 -15.42453125 4.75957031 -14.625 4.4375 C-13.85671875 4.12103516 -13.0884375 3.80457031 -12.296875 3.47851562 C-3.75937168 0 -3.75937168 0 0 0 Z " fill="#D8ECF2" transform="translate(293,453)"/>
<path d="M0 0 C1.32 0 2.64 0 4 0 C4 0.66 4 1.32 4 2 C3.02885254 2.65319214 3.02885254 2.65319214 2.03808594 3.31958008 C-0.19700621 4.81933557 -0.19700621 4.81933557 -0.54589844 7.26831055 C-0.5668457 8.13238525 -0.58779297 8.99645996 -0.609375 9.88671875 C-0.64160156 10.82451172 -0.67382812 11.76230469 -0.70703125 12.72851562 C-0.72121094 13.70498047 -0.73539063 14.68144531 -0.75 15.6875 C-0.77964844 16.67556641 -0.80929688 17.66363281 -0.83984375 18.68164062 C-0.91055492 21.12117596 -0.96324265 23.55975525 -1 26 C-0.01 26.33 0.98 26.66 2 27 C0.68 27.33 -0.64 27.66 -2 28 C-2.89115181 19.31126982 -3.11624638 10.73139464 -3 2 C-2.01 2 -1.02 2 0 2 C0 1.34 0 0.68 0 0 Z " fill="#EDBB48" transform="translate(228,381)"/>
<path d="M0 0 C7.26 0 14.52 0 22 0 C22.33 4.95 22.66 9.9 23 15 C22.34 15 21.68 15 21 15 C20.67 15.66 20.34 16.32 20 17 C20 11.72 20 6.44 20 1 C13.4 1 6.8 1 0 1 C0 0.67 0 0.34 0 0 Z " fill="#2F302F" transform="translate(1033,376)"/>
<path d="M0 0 C0.66 0 1.32 0 2 0 C0.48616068 3.3692629 -1.48369961 6.0163196 -3.8125 8.875 C-4.87404297 10.18210937 -4.87404297 10.18210937 -5.95703125 11.515625 C-8.29188508 14.35495012 -10.63212302 17.18814609 -13 20 C-13.66 19.67 -14.32 19.34 -15 19 C-13.59449154 14.52792762 -11.3635857 12.19950835 -8 9 C-7.46375 8.236875 -6.9275 7.47375 -6.375 6.6875 C-5.92125 6.130625 -5.4675 5.57375 -5 5 C-4.01 5 -3.02 5 -2 5 C-1.34 3.35 -0.68 1.7 0 0 Z " fill="#244F72" transform="translate(726,345)"/>
<path d="M0 0 C0.66 0.33 1.32 0.66 2 1 C-2.9948588 7.27559183 -8.57028031 13.83428429 -16.5625 15.9375 C-17.366875 15.958125 -18.17125 15.97875 -19 16 C-15.16771102 11.99185072 -11.07477678 8.57171247 -6.6875 5.1875 C-6.04232422 4.68541016 -5.39714844 4.18332031 -4.73242188 3.66601562 C-3.15732875 2.44094319 -1.57899684 1.2200368 0 0 Z " fill="#E3F1F2" transform="translate(309,326)"/>
<path d="M0 0 C0.66 0.33 1.32 0.66 2 1 C-4.14659182 6.58241189 -10.46888353 11.87327809 -17 17 C-17.33 16.01 -17.66 15.02 -18 14 C-15.89921489 10.92385037 -14.11378405 9.07585603 -11 7 C-10.01 7 -9.02 7 -8 7 C-7.67 6.01 -7.34 5.02 -7 4 C-5.68 4 -4.36 4 -3 4 C-2.67 3.01 -2.34 2.02 -2 1 C-1.34 0.67 -0.68 0.34 0 0 Z " fill="#E9BF5E" transform="translate(302,350)"/>
<path d="M0 0 C4.62 0 9.24 0 14 0 C14 8.58 14 17.16 14 26 C13.67 26 13.34 26 13 26 C13 18.41 13 10.82 13 3 C9.7 3 6.4 3 3 3 C2.01 2.01 1.02 1.02 0 0 Z " fill="#545452" transform="translate(1348,353)"/>
<path d="M0 0 C0.99 0 1.98 0 3 0 C1.68761832 2.84258606 0.23292824 5.09408245 -1.8203125 7.453125 C-2.35527344 8.071875 -2.89023437 8.690625 -3.44140625 9.328125 C-3.99699219 9.96234375 -4.55257812 10.5965625 -5.125 11.25 C-5.68832031 11.8996875 -6.25164063 12.549375 -6.83203125 13.21875 C-8.21764364 14.815727 -9.60832754 16.40830122 -11 18 C-11.66 17.34 -12.32 16.68 -13 16 C-12.625 13.875 -12.625 13.875 -12 12 C-11.01 12.33 -10.02 12.66 -9 13 C-9 12.34 -9 11.68 -9 11 C-8.34 11 -7.68 11 -7 11 C-7 10.01 -7 9.02 -7 8 C-6.34 8 -5.68 8 -5 8 C-5 7.34 -5 6.68 -5 6 C-4.01 6 -3.02 6 -2 6 C-1.34 4.02 -0.68 2.04 0 0 Z " fill="#1E496B" transform="translate(670,411)"/>
<path d="M0 0 C-1.50042856 3.00085712 -3.74296705 3.28257944 -6.8125 4.5 C-11.08437403 6.18684591 -11.08437403 6.18684591 -15.21484375 8.1796875 C-17.72227676 9.3318996 -19.40720936 8.72021962 -22 8 C-18.47933914 5.65289276 -14.85739715 4.02499215 -11 2.3125 C-10.27554688 1.97927734 -9.55109375 1.64605469 -8.8046875 1.30273438 C-3.35127498 -1.11709166 -3.35127498 -1.11709166 0 0 Z " fill="#214F71" transform="translate(207,282)"/>
<path d="M0 0 C0.78375 0.04125 1.5675 0.0825 2.375 0.125 C2.375 1.115 2.375 2.105 2.375 3.125 C1.715 3.125 1.055 3.125 0.375 3.125 C0.148125 3.929375 -0.07875 4.73375 -0.3125 5.5625 C-0.9621875 6.8309375 -0.9621875 6.8309375 -1.625 8.125 C-4.1875 8.8125 -4.1875 8.8125 -6.625 9.125 C-6.955 9.785 -7.285 10.445 -7.625 11.125 C-7.955 10.135 -8.285 9.145 -8.625 8.125 C-3.927 0.187 -3.927 0.187 0 0 Z " fill="#F5B836" transform="translate(387.625,274.875)"/>
<path d="M0 0 C0.66 0.33 1.32 0.66 2 1 C1.3503125 1.5878125 1.3503125 1.5878125 0.6875 2.1875 C-1.12276355 3.96688437 -1.12276355 3.96688437 -2.25 6.4375 C-5.12757955 10.65109862 -9.06161929 12.50509429 -13.9375 13.75 C-14.9584375 13.87375 -14.9584375 13.87375 -16 14 C-12.56846086 10.46808678 -9.02624938 7.2862495 -5.1875 4.1875 C-4.21167969 3.39730469 -3.23585937 2.60710937 -2.23046875 1.79296875 C-1.49441406 1.20128906 -0.75835937 0.60960937 0 0 Z " fill="#FEF5CB" transform="translate(249,394)"/>
<path d="M0 0 C2.49019887 -0.03193916 4.97687173 -0.05370951 7.46728516 -0.03344727 C8.33095703 -0.05342773 9.19462891 -0.0734082 10.08447266 -0.09399414 C16.45948521 -0.08907515 16.45948521 -0.08907515 19.69384766 2.43139648 C20.15533203 3.08237305 20.61681641 3.73334961 21.09228516 4.40405273 C20.10228516 4.89905273 20.10228516 4.89905273 19.09228516 5.40405273 C18.41810547 5.09725586 17.74392578 4.79045898 17.04931641 4.47436523 C12.92477506 2.98146652 9.12662503 3.1898516 4.77978516 3.27905273 C3.52584961 3.29258789 3.52584961 3.29258789 2.24658203 3.30639648 C0.19502546 3.32984285 -1.85638261 3.36571008 -3.90771484 3.40405273 C-1.90771484 0.40405273 -1.90771484 0.40405273 0 0 Z " fill="#FEF4CB" transform="translate(374.90771484375,312.595947265625)"/>
<path d="M0 0 C0.66 0 1.32 0 2 0 C2 8.58 2 17.16 2 26 C1.01 25.67 0.02 25.34 -1 25 C-0.67 16.75 -0.34 8.5 0 0 Z " fill="#08416E" transform="translate(733,445)"/>
<path d="M0 0 C11.88 0 23.76 0 36 0 C36 0.33 36 0.66 36 1 C35.08186523 1.0093457 34.16373047 1.01869141 33.21777344 1.02832031 C29.80294722 1.07239931 26.38936892 1.13403732 22.97509766 1.20751953 C21.49897804 1.23570088 20.02270831 1.25692966 18.54638672 1.27099609 C16.42076943 1.29246698 14.29695121 1.33913043 12.171875 1.390625 C10.8940918 1.41157227 9.61630859 1.43251953 8.29980469 1.45410156 C4.50341847 2.08215125 3.39679485 3.08701703 1 6 C0.67 6 0.34 6 0 6 C0 4.02 0 2.04 0 0 Z " fill="#0B416D" transform="translate(601,316)"/>
<path d="M0 0 C0.66 0.33 1.32 0.66 2 1 C-2.25345323 6.62553491 -7.73415371 12.92754707 -14.78125 14.69921875 C-15.5134375 14.79847656 -16.245625 14.89773438 -17 15 C-13.41157029 11.30504919 -9.66828129 7.95241783 -5.6875 4.6875 C-5.13771484 4.23310547 -4.58792969 3.77871094 -4.02148438 3.31054688 C-2.68287784 2.20474148 -1.34170769 1.10204061 0 0 Z " fill="#FEF6D0" transform="translate(268,379)"/>
<path d="M0 0 C0.33 0.66 0.66 1.32 1 2 C-1.72770166 2.98341615 -4.45702105 3.96185053 -7.1875 4.9375 C-7.95642578 5.21529297 -8.72535156 5.49308594 -9.51757812 5.77929688 C-13.32335366 7.13500232 -16.9932364 8.36566268 -21 9 C-20.67 8.01 -20.34 7.02 -20 6 C-16.535 5.505 -16.535 5.505 -13 5 C-13 4.34 -13 3.68 -13 3 C-4.57142857 -0.42857143 -4.57142857 -0.42857143 0 0 Z " fill="#194565" transform="translate(293,451)"/>
<path d="M0 0 C4.76350585 0.71452588 9.34201396 1.79534844 14 3 C14.11730469 3.63808594 14.23460937 4.27617187 14.35546875 4.93359375 C14.56816406 5.61550781 14.78085938 6.29742187 15 7 C17.3430809 8.12085312 17.3430809 8.12085312 20 9 C21.36365283 9.95824253 22.70794169 10.94721175 24 12 C23.67 12.66 23.34 13.32 23 14 C22.34515625 13.56429688 21.6903125 13.12859375 21.015625 12.6796875 C14.23454998 8.25474871 7.30752629 4.4815963 0 1 C0 0.67 0 0.34 0 0 Z " fill="#234D6C" transform="translate(174,460)"/>
<path d="M0 0 C1.64164355 3.2832871 2.52087355 5.45446424 3 9 C2.67 9.33 2.34 9.66 2 10 C1.92492192 11.64946534 1.91682606 13.30208133 1.9375 14.953125 C1.94523438 15.96503906 1.95296875 16.97695313 1.9609375 18.01953125 C1.98679026 20.15755438 2.01282914 22.29557526 2.0390625 24.43359375 C2.04679688 25.45066406 2.05453125 26.46773438 2.0625 27.515625 C2.07410156 28.44665039 2.08570313 29.37767578 2.09765625 30.33691406 C2.00016416 32.9955233 1.59532282 35.41128325 1 38 C0.67 38 0.34 38 0 38 C0 25.46 0 12.92 0 0 Z " fill="#E8F9FE" transform="translate(224,428)"/>
<path d="M0 0 C0.66 0 1.32 0 2 0 C1.3622098 7.52592433 -0.19889833 14.67098882 -2 22 C-4.11563191 18.14803274 -4.38811002 15.42445424 -4 11 C-3.04906703 9.30485863 -2.04892238 7.63631892 -1 6 C-0.28598768 2.80604974 -0.28598768 2.80604974 0 0 Z " fill="#DAECF3" transform="translate(82,411)"/>
<path d="M0 0 C0.66 0.99 1.32 1.98 2 3 C0.02546836 5.33729134 -1.95537469 7.66914662 -3.9375 10 C-4.50146484 10.66773438 -5.06542969 11.33546875 -5.64648438 12.0234375 C-6.18466797 12.65507812 -6.72285156 13.28671875 -7.27734375 13.9375 C-7.77484131 14.52402344 -8.27233887 15.11054688 -8.78491211 15.71484375 C-9.18589111 16.13894531 -9.58687012 16.56304687 -10 17 C-10.33 17 -10.66 17 -11 17 C-11 15.35 -11 13.7 -11 12 C-10.01 12 -9.02 12 -8 12 C-8 11.01 -8 10.02 -8 9 C-7.34 9 -6.68 9 -6 9 C-6 8.34 -6 7.68 -6 7 C-5.01 7 -4.02 7 -3 7 C-2.87625 6.401875 -2.7525 5.80375 -2.625 5.1875 C-2 3 -2 3 0 0 Z " fill="#184669" transform="translate(690,387)"/>
<path d="M0 0 C-4.69334478 4.20782635 -10.24646076 7.45213641 -16 10 C-16.66 9.67 -17.32 9.34 -18 9 C-7.82059585 -0.44689119 -7.82059585 -0.44689119 0 0 Z " fill="#FDF4C7" transform="translate(312,333)"/>
<path d="M0 0 C3.26649474 3.17575878 6.15774261 6.44717827 9 10 C10.64783606 11.68528688 12.31002677 13.35697047 14 15 C13.67 15.99 13.34 16.98 13 18 C12.59910156 17.5153125 12.19820312 17.030625 11.78515625 16.53125 C7.25157528 11.18553094 2.3300192 6.54441546 -3 2 C-2.01 1.34 -1.02 0.68 0 0 Z " fill="#194463" transform="translate(206,476)"/>
<path d="M0 0 C0.66 0 1.32 0 2 0 C1.25 4.75 1.25 4.75 -1 7 C-2.03842565 9.31648799 -3.0421975 11.64903024 -4 14 C-5.32 13.67 -6.64 13.34 -8 13 C-6.716961 10.82778513 -5.42427887 8.6624676 -4.125 6.5 C-3.76019531 5.87996094 -3.39539063 5.25992187 -3.01953125 4.62109375 C-2.0677482 3.04632542 -1.03889741 1.51870947 0 0 Z " fill="#1F4F72" transform="translate(245,435)"/>
<path d="M0 0 C1.65 0 3.3 0 5 0 C5.33 1.98 5.66 3.96 6 6 C4.35 4.68 2.7 3.36 1 2 C1.33 6.95 1.66 11.9 2 17 C-0.30436237 14.69563763 -0.93312794 13.08568756 -1.1328125 9.84375 C-1.13023437 9.0703125 -1.12765625 8.296875 -1.125 7.5 C-1.12757813 6.7265625 -1.13015625 5.953125 -1.1328125 5.15625 C-1 3 -1 3 0 0 Z " fill="#FDF3CB" transform="translate(341,269)"/>
<path d="M0 0 C0.99 0.66 1.98 1.32 3 2 C-0.14301607 5.32261699 -3.10265709 7.66159425 -7 10 C-8.7041054 11.62836738 -10.38025441 13.28769752 -12 15 C-12.66 14.67 -13.32 14.34 -14 14 C-9.38 9.38 -4.76 4.76 0 0 Z " fill="#204B6F" transform="translate(311,358)"/>
<path d="M0 0 C1.175625 0.33 2.35125 0.66 3.5625 1 C10.29585602 2.53227012 17.13917106 2.16270741 24 2 C24.33 1.34 24.66 0.68 25 0 C25 0.99 25 1.98 25 3 C21.36102049 4.81948976 17.06840712 4.18470453 13.0625 4.1875 C12.14275391 4.19974609 11.22300781 4.21199219 10.27539062 4.22460938 C9.39173828 4.22654297 8.50808594 4.22847656 7.59765625 4.23046875 C6.78820557 4.23457764 5.97875488 4.23868652 5.14477539 4.24291992 C3 4 3 4 0 2 C0 1.34 0 0.68 0 0 Z " fill="#FDF2C4" transform="translate(372,318)"/>
<path d="M0 0 C0.66 0.33 1.32 0.66 2 1 C-2.29 4.63 -6.58 8.26 -11 12 C-11.33 11.34 -11.66 10.68 -12 10 C-12.99 9.67 -13.98 9.34 -15 9 C-13.50146484 8.15115234 -13.50146484 8.15115234 -11.97265625 7.28515625 C-10.66922254 6.5443558 -9.36583975 5.80346575 -8.0625 5.0625 C-7.40314453 4.68931641 -6.74378906 4.31613281 -6.06445312 3.93164062 C-2.84167167 2.23037187 -2.84167167 2.23037187 0 0 Z " fill="#E1C276" transform="translate(351,311)"/>
<path d="M0 0 C0 0.33 0 0.66 0 1 C-8.02669514 3.50834223 -15.62858337 4.17440451 -24 4 C-16.71521877 -0.0414404 -8.14900705 -0.26718056 0 0 Z " fill="#D4E7EF" transform="translate(325,447)"/>
<path d="M0 0 C4.54805635 -0.17835515 7.8794254 0.00214565 12 2 C11.67 2.66 11.34 3.32 11 4 C2.42857143 4.14285714 2.42857143 4.14285714 -1 3 C-0.67 2.01 -0.34 1.02 0 0 Z " fill="#F0B841" transform="translate(380,316)"/>
<path d="M0 0 C6.72045875 2.19037174 13.36724003 4.55765661 20 7 C19.67 7.66 19.34 8.32 19 9 C18.35933594 8.80664062 17.71867187 8.61328125 17.05859375 8.4140625 C12.04889015 6.9059252 7.03460143 5.42282214 2 4 C2 3.34 2 2.68 2 2 C1.34 2 0.68 2 0 2 C0 1.34 0 0.68 0 0 Z " fill="#244E70" transform="translate(189,415)"/>
<path d="M0 0 C0.66 0.33 1.32 0.66 2 1 C1.34 1.66 0.68 2.32 0 3 C0 3.99 0 4.98 0 6 C-1.60032137 6.84069415 -3.20541171 7.67231505 -4.8125 8.5 C-5.70582031 8.9640625 -6.59914063 9.428125 -7.51953125 9.90625 C-10 11 -10 11 -13 11 C-8.73958774 7.23645964 -4.48151089 3.50118038 0 0 Z " fill="#FEF6CA" transform="translate(338,323)"/>
<path d="M0 0 C2.31 0.33 4.62 0.66 7 1 C5.9024777 3.99324263 5.32317108 4.84610901 2.375 6.25 C1.59125 6.4975 0.8075 6.745 0 7 C-1.125 2.25 -1.125 2.25 0 0 Z " fill="#143D5F" transform="translate(316,313)"/>
<path d="M0 0 C3 1 3 1 4 3 C4.22622081 4.70363822 4.40888473 6.41328701 4.5625 8.125 C4.64628906 9.03507812 4.73007812 9.94515625 4.81640625 10.8828125 C4.87699219 11.58148438 4.93757813 12.28015625 5 13 C4.01 13.495 4.01 13.495 3 14 C2.67 12.02 2.34 10.04 2 8 C1.34 8 0.68 8 0 8 C0 5.36 0 2.72 0 0 Z " fill="#EEB948" transform="translate(343,276)"/>
<path d="M0 0 C0.33 0.99 0.66 1.98 1 3 C-0.109375 5.19140625 -0.109375 5.19140625 -1.75 7.5625 C-2.28109375 8.34753906 -2.8121875 9.13257813 -3.359375 9.94140625 C-5 12 -5 12 -8 14 C-8.66 13.34 -9.32 12.68 -10 12 C-6.7 8.04 -3.4 4.08 0 0 Z " fill="#1C4C6F" transform="translate(658,376)"/>
<path d="M0 0 C0.66 0.33 1.32 0.66 2 1 C-0.05872549 2.77538699 -2.12172999 4.54534184 -4.1875 6.3125 C-5.0547168 7.06176758 -5.0547168 7.06176758 -5.93945312 7.82617188 C-9.14664635 10.56225197 -12.29049989 12.95313836 -16 15 C-16 14.01 -16 13.02 -16 12 C-14.3203125 10.39453125 -14.3203125 10.39453125 -12.125 8.8125 C-11.40570313 8.28269531 -10.68640625 7.75289063 -9.9453125 7.20703125 C-8 6 -8 6 -6 6 C-6 5.34 -6 4.68 -6 4 C-4.03852126 2.61061923 -2.03833424 1.2739589 0 0 Z " fill="#E5BB58" transform="translate(281,367)"/>
<path d="M0 0 C1.32 0.33 2.64 0.66 4 1 C-1.94 4.3 -7.88 7.6 -14 11 C-14 10.01 -14 9.02 -14 8 C-13.07316406 7.50628906 -12.14632812 7.01257813 -11.19140625 6.50390625 C-9.98172045 5.85686501 -8.77208778 5.20972446 -7.5625 4.5625 C-6.95083984 4.23701172 -6.33917969 3.91152344 -5.70898438 3.57617188 C-2.66283794 2.06284858 -2.66283794 2.06284858 0 0 Z " fill="#344944" transform="translate(240,371)"/>
<path d="M0 0 C0 0.99 0 1.98 0 3 C-0.99 3.495 -0.99 3.495 -2 4 C-1.67 4.99 -1.34 5.98 -1 7 C-1.825 7.433125 -2.65 7.86625 -3.5 8.3125 C-4.7375 9.1478125 -4.7375 9.1478125 -6 10 C-6 10.99 -6 11.98 -6 13 C-6.99 12.67 -7.98 12.34 -9 12 C-8.40503246 8.67258892 -7.29522827 6.82909592 -5.0625 4.3125 C-4.53785156 3.71050781 -4.01320313 3.10851562 -3.47265625 2.48828125 C-2 1 -2 1 0 0 Z " fill="#134367" transform="translate(676,357)"/>
<path d="M0 0 C-2.76825188 1.17314026 -5.53928486 2.33870215 -8.3125 3.5 C-9.09818359 3.83386719 -9.88386719 4.16773438 -10.69335938 4.51171875 C-11.8293457 4.98544922 -11.8293457 4.98544922 -12.98828125 5.46875 C-13.68477783 5.76201172 -14.38127441 6.05527344 -15.09887695 6.35742188 C-17 7 -17 7 -20 7 C-20 6.34 -20 5.68 -20 5 C-4.47072759 -1.32219391 -4.47072759 -1.32219391 0 0 Z " fill="#DDF1F7" transform="translate(71,337)"/>
<path d="M0 0 C1.32 0.33 2.64 0.66 4 1 C0.29909479 4.9252025 -3.54959656 7.94580156 -8 11 C-8.66 10.34 -9.32 9.68 -10 9 C-9.34 8.34 -8.68 7.68 -8 7 C-7.01 7 -6.02 7 -5 7 C-5.33 6.01 -5.66 5.02 -6 4 C-4.35 3.67 -2.7 3.34 -1 3 C-0.67 2.01 -0.34 1.02 0 0 Z " fill="#224F70" transform="translate(305,325)"/>
<path d="M0 0 C-3.99889393 4.18931745 -7.17587849 5.57642753 -13 6 C-13.66 5.34 -14.32 4.68 -15 4 C-13.06767179 3.13419713 -11.12892806 2.28270059 -9.1875 1.4375 C-8.10855469 0.96183594 -7.02960938 0.48617188 -5.91796875 -0.00390625 C-3 -1 -3 -1 0 0 Z " fill="#1F4D6F" transform="translate(178,294)"/>
<path d="M0 0 C0.33 0 0.66 0 1 0 C1 8.25 1 16.5 1 25 C-0.98 25 -2.96 25 -5 25 C-5 24.34 -5 23.68 -5 23 C-3.68 22.67 -2.36 22.34 -1 22 C-0.67 14.74 -0.34 7.48 0 0 Z " fill="#17425F" transform="translate(323,422)"/>
<path d="M0 0 C4.6875 0.78125 4.6875 0.78125 9.375 1.5625 C10.674375 1.7790625 10.674375 1.7790625 12 2 C11.67 2.99 11.34 3.98 11 5 C11.99 5 12.98 5 14 5 C14 5.66 14 6.32 14 7 C3.25740319 4.29384966 3.25740319 4.29384966 0 0 Z " fill="#224F72" transform="translate(137,380)"/>
<path d="M0 0 C-1.3815972 2.7631944 -2.92179609 3.0286058 -5.75 4.1875 C-6.61109375 4.55230469 -7.4721875 4.91710937 -8.359375 5.29296875 C-11.31736724 6.08497555 -13.08336619 5.82358185 -16 5 C-11.1356474 1.75709826 -5.95319301 -0.55811184 0 0 Z " fill="#1E4D70" transform="translate(382,353)"/>
<path d="M0 0 C0.33 0.66 0.66 1.32 1 2 C0.06553465 4.03144641 -0.93224776 6.03533587 -2 8 C-1.34 8.66 -0.68 9.32 0 10 C-2.64 11.65 -5.28 13.3 -8 15 C-6.51194289 9.19657726 -3.40902445 4.82409121 0 0 Z " fill="#E1BD66" transform="translate(375,284)"/>
<path d="M0 0 C0.47953125 0.48082031 0.9590625 0.96164062 1.453125 1.45703125 C5.1275833 3.68312178 8.5266376 3.56493144 12.75 3.6875 C13.93916016 3.73874023 13.93916016 3.73874023 15.15234375 3.79101562 C17.10107504 3.87319104 19.05051362 3.93828045 21 4 C21 4.33 21 4.66 21 5 C13.74 5 6.48 5 -1 5 C-0.67 3.35 -0.34 1.7 0 0 Z " fill="#194262" transform="translate(78,442)"/>
<path d="M0 0 C0.33 0.66 0.66 1.32 1 2 C0.38511719 2.68835938 0.38511719 2.68835938 -0.2421875 3.390625 C-1.05042969 4.31101562 -1.05042969 4.31101562 -1.875 5.25 C-2.40867187 5.85328125 -2.94234375 6.4565625 -3.4921875 7.078125 C-5.06912392 8.95230477 -5.06912392 8.95230477 -6.0703125 11.171875 C-7 13 -7 13 -9 14 C-9.66 13.34 -10.32 12.68 -11 12 C-7.37 8.04 -3.74 4.08 0 0 Z " fill="#295473" transform="translate(284,386)"/>
<path d="M0 0 C0.66 0 1.32 0 2 0 C1.46324097 3.85103301 -0.11600923 5.31797587 -3.0625 7.75 C-4.16271484 8.67039062 -4.16271484 8.67039062 -5.28515625 9.609375 C-5.85105469 10.06828125 -6.41695312 10.5271875 -7 11 C-7.66 10.67 -8.32 10.34 -9 10 C-7.5484451 8.32742645 -6.08855591 6.66208242 -4.625 5 C-3.81289063 4.071875 -3.00078125 3.14375 -2.1640625 2.1875 C-1.44992187 1.465625 -0.73578125 0.74375 0 0 Z " fill="#194669" transform="translate(648,389)"/>
<path d="M0 0 C0.99 0.33 1.98 0.66 3 1 C-2.94 6.445 -2.94 6.445 -9 12 C-9.33 11.01 -9.66 10.02 -10 9 C-9.34 9 -8.68 9 -8 9 C-8 8.34 -8 7.68 -8 7 C-7.34 7 -6.68 7 -6 7 C-5.7525 6.401875 -5.505 5.80375 -5.25 5.1875 C-3.80517427 2.65905497 -2.51719455 1.44929383 0 0 Z " fill="#DAECF5" transform="translate(319,348)"/>
<path d="M0 0 C0.33 0 0.66 0 1 0 C0.67 2.31 0.34 4.62 0 7 C-0.66 7 -1.32 7 -2 7 C-2.28875 7.804375 -2.5775 8.60875 -2.875 9.4375 C-4 12 -4 12 -6 13 C-5.52467862 7.92990529 -2.95637706 4.02506742 0 0 Z " fill="#174466" transform="translate(235,452)"/>
<path d="M0 0 C-2.2898234 1.0044134 -4.5816599 2.00367612 -6.875 3 C-7.52597656 3.28617187 -8.17695313 3.57234375 -8.84765625 3.8671875 C-13.7734375 6 -13.7734375 6 -16 6 C-16 5.34 -16 4.68 -16 4 C-6.47949173 -1.78697561 -6.47949173 -1.78697561 0 0 Z " fill="#DEF1F7" transform="translate(170,296)"/>
<path d="M0 0 C0 0.66 0 1.32 0 2 C-1.55851755 2.82011312 -3.12201716 3.63076213 -4.6875 4.4375 C-5.99267578 5.11619141 -5.99267578 5.11619141 -7.32421875 5.80859375 C-9.90998264 6.95991928 -12.21356528 7.56320753 -15 8 C-15.33 7.34 -15.66 6.68 -16 6 C-13.7101766 4.9955866 -11.4183401 3.99632388 -9.125 3 C-8.14853516 2.57074219 -8.14853516 2.57074219 -7.15234375 2.1328125 C-2.2265625 0 -2.2265625 0 0 0 Z " fill="#275272" transform="translate(92,328)"/>
<path d="M0 0 C-2 2.5625 -2 2.5625 -5 5 C-7.89116824 5.14963532 -10.13399816 4.63149193 -13 4 C-10.96180154 1.96180154 -9.70582202 1.32158941 -7.0625 0.3125 C-6.37285156 0.04050781 -5.68320313 -0.23148437 -4.97265625 -0.51171875 C-3 -1 -3 -1 0 0 Z " fill="#285579" transform="translate(137,311)"/>
<path d="M0 0 C0 2 0 2 -1.14453125 3.58203125 C-3.65493519 5.50050837 -5.55949578 5.50349975 -8.6875 5.6875 C-10.17830078 5.78611328 -10.17830078 5.78611328 -11.69921875 5.88671875 C-12.45847656 5.92410156 -13.21773437 5.96148437 -14 6 C-11.38517603 3.90696826 -9.02613643 2.44475244 -5.875 1.3125 C-5.19179687 1.06113281 -4.50859375 0.80976563 -3.8046875 0.55078125 C-2 0 -2 0 0 0 Z " fill="#204B6C" transform="translate(163,299)"/>
<path d="M0 0 C-0.66 1.32 -1.32 2.64 -2 4 C-2.66 4 -3.32 4 -4 4 C-4.20625 4.639375 -4.4125 5.27875 -4.625 5.9375 C-6 8 -6 8 -9.125 8.75 C-10.548125 8.87375 -10.548125 8.87375 -12 9 C-3.33333333 0 -3.33333333 0 0 0 Z " fill="#E4B950" transform="translate(266,360)"/>
<path d="M0 0 C0.33 0.99 0.66 1.98 1 3 C-0.45287661 4.33927721 -1.91247259 5.67126847 -3.375 7 C-4.59316406 8.11375 -4.59316406 8.11375 -5.8359375 9.25 C-8 11 -8 11 -10 11 C-10 8 -10 8 -8 6 C-7.01 6 -6.02 6 -5 6 C-5 5.34 -5 4.68 -5 4 C-4.01 3.67 -3.02 3.34 -2 3 C-1.34 2.01 -0.68 1.02 0 0 Z " fill="#E7B84B" transform="translate(314,339)"/>
<path d="M0 0 C-0.66 1.65 -1.32 3.3 -2 5 C-3.98 5 -5.96 5 -8 5 C-8.33 4.01 -8.66 3.02 -9 2 C-5.62902617 0.50178941 -3.79557881 0 0 0 Z " fill="#184669" transform="translate(77,335)"/>
<path d="M0 0 C6.625 0.75 6.625 0.75 10 3 C10 3.66 10 4.32 10 5 C7.36 5 4.72 5 2 5 C2.33 4.01 2.66 3.02 3 2 C2.01 1.67 1.02 1.34 0 1 C0 0.67 0 0.34 0 0 Z " fill="#114167" transform="translate(285,300)"/>
<path d="M0 0 C0.33 0.66 0.66 1.32 1 2 C-1.3463388 6.8731652 -3.48408258 9.86394624 -8 13 C-8.66 12.67 -9.32 12.34 -10 12 C-9.44570313 11.38511719 -8.89140625 10.77023437 -8.3203125 10.13671875 C-7.59585938 9.32847656 -6.87140625 8.52023437 -6.125 7.6875 C-5.40570312 6.88699219 -4.68640625 6.08648437 -3.9453125 5.26171875 C-1.88394498 2.95810917 -1.88394498 2.95810917 0 0 Z " fill="#D3E6EF" transform="translate(726,348)"/>
<path d="M0 0 C0 3.54016293 -0.73358567 4.41055605 -2.8125 7.1875 C-3.59560547 8.26064453 -3.59560547 8.26064453 -4.39453125 9.35546875 C-4.92433594 9.89816406 -5.45414062 10.44085938 -6 11 C-8 11 -10 11 -12 11 C-8.04 7.37 -4.08 3.74 0 0 Z " fill="#4B6173" transform="translate(337,334)"/>
<path d="M0 0 C-1.45855647 3.68646141 -3.30229045 5.16143971 -6.625 7.25 C-7.44226563 7.77078125 -8.25953125 8.2915625 -9.1015625 8.828125 C-10.04128906 9.40820312 -10.04128906 9.40820312 -11 10 C-10.67 8.68 -10.34 7.36 -10 6 C-9.01 6 -8.02 6 -7 6 C-7 5.01 -7 4.02 -7 3 C-2.77777778 0 -2.77777778 0 0 0 Z " fill="#1E4868" transform="translate(292,338)"/>
<path d="M0 0 C0.66 0.33 1.32 0.66 2 1 C0.57363718 2.84201153 -0.86644632 4.67340587 -2.3125 6.5 C-3.11300781 7.5209375 -3.91351562 8.541875 -4.73828125 9.59375 C-5.48464844 10.3878125 -6.23101563 11.181875 -7 12 C-7.99 12 -8.98 12 -10 12 C-9.67 11.34 -9.34 10.68 -9 10 C-8.34 10 -7.68 10 -7 10 C-6.5359375 9.071875 -6.5359375 9.071875 -6.0625 8.125 C-5.375 6.75 -4.6875 5.375 -4 4 C-3.34 4 -2.68 4 -2 4 C-1.34 2.68 -0.68 1.36 0 0 Z " fill="#DAEEF4" transform="translate(647,387)"/>
<path d="M0 0 C0.66 0.33 1.32 0.66 2 1 C-3.96583144 8.66742597 -3.96583144 8.66742597 -9 10 C-6.43571997 5.82117329 -3.98069267 2.87494471 0 0 Z " fill="#FEF8D6" transform="translate(323,335)"/>
<path d="M0 0 C0.66 0 1.32 0 2 0 C2 1.32 2 2.64 2 4 C4.97 4 7.94 4 11 4 C10.67 4.66 10.34 5.32 10 6 C6.7 6 3.4 6 0 6 C0 4.02 0 2.04 0 0 Z " fill="#05406C" transform="translate(603,336)"/>
<path d="M0 0 C4.4471735 -0.21177017 7.92086433 0.14584742 12 2 C13.171875 4.078125 13.171875 4.078125 14 6 C9.27934033 4.45730076 4.58335908 2.92205381 0 1 C0 0.67 0 0.34 0 0 Z " fill="#D8EBF3" transform="translate(238,279)"/>
<path d="M0 0 C0.66 0.33 1.32 0.66 2 1 C-3.94 6.445 -3.94 6.445 -10 12 C-10.99 11.67 -11.98 11.34 -13 11 C-8.73958774 7.23645964 -4.48151089 3.50118038 0 0 Z " fill="#D8ECF2" transform="translate(247,475)"/>
<path d="M0 0 C5.94 0.33 11.88 0.66 18 1 C18 1.33 18 1.66 18 2 C15.3753399 2.19430855 12.75053235 2.38073238 10.125 2.5625 C9.00544922 2.64661133 9.00544922 2.64661133 7.86328125 2.73242188 C2.2265625 3.11328125 2.2265625 3.11328125 0 2 C0 1.34 0 0.68 0 0 Z " fill="#4D4E4D" transform="translate(1340,377)"/>
<path d="M0 0 C1.11375 0.3403125 1.11375 0.3403125 2.25 0.6875 C2.25 1.3475 2.25 2.0075 2.25 2.6875 C0.93 2.6875 -0.39 2.6875 -1.75 2.6875 C-1.75 3.3475 -1.75 4.0075 -1.75 4.6875 C-4.39 5.0175 -7.03 5.3475 -9.75 5.6875 C-3.91015625 -0.44433594 -3.91015625 -0.44433594 0 0 Z " fill="#DBBA63" transform="translate(275.75,354.3125)"/>
<path d="M0 0 C4.29 0.66 8.58 1.32 13 2 C13 2.33 13 2.66 13 3 C9.37 3.33 5.74 3.66 2 4 C2 3.34 2 2.68 2 2 C1.34 2 0.68 2 0 2 C0 1.34 0 0.68 0 0 Z " fill="#DBEDF5" transform="translate(122,446)"/>
<path d="M0 0 C0.33 0.99 0.66 1.98 1 3 C0.67 3.33 0.34 3.66 0 4 C-0.07179964 5.51928038 -0.08392007 7.04167482 -0.0625 8.5625 C-0.05347656 9.38878906 -0.04445313 10.21507812 -0.03515625 11.06640625 C-0.02355469 11.70449219 -0.01195313 12.34257812 0 13 C-0.99 12.67 -1.98 12.34 -3 12 C-3.36923077 4.61538462 -3.36923077 4.61538462 -1.5 1.5 C-1.005 1.005 -0.51 0.51 0 0 Z " fill="#224B6A" transform="translate(82,395)"/>
<path d="M0 0 C-1.23734984 1.03613033 -2.49044637 2.05347802 -3.75 3.0625 C-4.79414063 3.91521484 -4.79414063 3.91521484 -5.859375 4.78515625 C-8 6 -8 6 -10.265625 5.68359375 C-10.83796875 5.45800781 -11.4103125 5.23242188 -12 5 C-4.28571429 -1.42857143 -4.28571429 -1.42857143 0 0 Z " fill="#FEFBE0" transform="translate(307,353)"/>
<path d="M0 0 C-0.36969853 2.65614176 -0.70475592 3.74758254 -2.77734375 5.51953125 C-3.49019531 5.94621094 -4.20304687 6.37289063 -4.9375 6.8125 C-5.64777344 7.25207031 -6.35804688 7.69164062 -7.08984375 8.14453125 C-8.03537109 8.56798828 -8.03537109 8.56798828 -9 9 C-9.66 8.67 -10.32 8.34 -11 8 C-9.54712339 6.66072279 -8.08752741 5.32873153 -6.625 4 C-5.81289063 3.2575 -5.00078125 2.515 -4.1640625 1.75 C-2 0 -2 0 0 0 Z " fill="#EBECD6" transform="translate(285,346)"/>
<path d="M0 0 C0.99 0.66 1.98 1.32 3 2 C2.34 2.66 1.68 3.32 1 4 C0.01 4 -0.98 4 -2 4 C-2.66 5.98 -3.32 7.96 -4 10 C-4.99 9.34 -5.98 8.68 -7 8 C-4.69 5.36 -2.38 2.72 0 0 Z " fill="#2B5575" transform="translate(270,402)"/>
<path d="M0 0 C0 4.33685836 -2.08014014 5.9443327 -5 9 C-5.99 9 -6.98 9 -8 9 C-6.4169423 4.7257442 -3.49431596 2.73468206 0 0 Z " fill="#0E3C60" transform="translate(293,378)"/>
<path d="M0 0 C0.66 1.32 1.32 2.64 2 4 C2.66 4 3.32 4 4 4 C4 4.66 4 5.32 4 6 C0.7 5.01 -2.6 4.02 -6 3 C-3.8614515 0.8614515 -2.86724686 0.57344937 0 0 Z " fill="#20486A" transform="translate(103,364)"/>
<path d="M0 0 C4.29 1.65 8.58 3.3 13 5 C13 5.33 13 5.66 13 6 C7.32822615 6.45374191 4.4024732 5.65083143 0 2 C0 1.34 0 0.68 0 0 Z " fill="#234D6C" transform="translate(300,305)"/>
<path d="M0 0 C0.66 0.66 1.32 1.32 2 2 C-1.81756824 3.37432457 -5.07255329 2.67975039 -9 2 C-9 1.34 -9 0.68 -9 0 C-5.47955362 -1.17348213 -3.57539179 -0.83679382 0 0 Z " fill="#2F3030" transform="translate(1187,450)"/>
<path d="M0 0 C0.66 0.33 1.32 0.66 2 1 C1.57847656 1.47050781 1.15695312 1.94101562 0.72265625 2.42578125 C0.17480469 3.04839844 -0.37304688 3.67101562 -0.9375 4.3125 C-1.48277344 4.92738281 -2.02804687 5.54226563 -2.58984375 6.17578125 C-4.20081559 8.05241958 -4.20081559 8.05241958 -5 11 C-5.66 11 -6.32 11 -7 11 C-6.67 9.35 -6.34 7.7 -6 6 C-5.01 5.67 -4.02 5.34 -3 5 C-3 4.01 -3 3.02 -3 2 C-2.01 1.34 -1.02 0.68 0 0 Z " fill="#144265" transform="translate(652,434)"/>
<path d="M0 0 C4.21912747 0.4794463 6.79663178 1.16625119 10 4 C7.83032311 4.95465783 6.43671207 5.14401212 4.17578125 4.3984375 C2.4315257 3.64129615 0.71372869 2.82390802 -1 2 C-0.67 1.34 -0.34 0.68 0 0 Z " fill="#28577A" transform="translate(177,395)"/>
<path d="M0 0 C-4.77830905 2.91360308 -7.55106131 3.19876651 -13 2 C-12.67 1.34 -12.34 0.68 -12 0 C-10.0390625 -0.44921875 -10.0390625 -0.44921875 -7.625 -0.6875 C-6.43777344 -0.81705078 -6.43777344 -0.81705078 -5.2265625 -0.94921875 C-3 -1 -3 -1 0 0 Z " fill="#154164" transform="translate(359,363)"/>
<path d="M0 0 C0.66 0.66 1.32 1.32 2 2 C-4.75 4 -4.75 4 -7 4 C-7 3.34 -7 2.68 -7 2 C-7.66 1.67 -8.32 1.34 -9 1 C-5.75778445 -0.08073852 -3.39597063 -0.21676408 0 0 Z " fill="#4B4C4B" transform="translate(1348,354)"/>
<path d="M0 0 C0.75 1.75 0.75 1.75 1 4 C-0.9375 6.25 -0.9375 6.25 -3 8 C-3.33 7.01 -3.66 6.02 -4 5 C-4.66 4.67 -5.32 4.34 -6 4 C-4.02 2.68 -2.04 1.36 0 0 Z " fill="#1C4260" transform="translate(329,343)"/>
<path d="M0 0 C4.23429756 1.31061591 8.07407404 2.94356259 12 5 C11.67 5.66 11.34 6.32 11 7 C7.2089881 5.55049545 3.6125362 3.84827434 0 2 C0 1.34 0 0.68 0 0 Z " fill="#1D496A" transform="translate(239,280)"/>
<path d="M0 0 C0.66 0 1.32 0 2 0 C3.38226016 2.76452033 3.09525387 5.0461363 3.0625 8.125 C3.05347656 9.22070312 3.04445313 10.31640625 3.03515625 11.4453125 C3.02355469 12.28835938 3.01195313 13.13140625 3 14 C2.67 14 2.34 14 2 14 C1.66179834 12.4176994 1.32964061 10.83410625 1 9.25 C0.814375 8.36828125 0.62875 7.4865625 0.4375 6.578125 C0 4 0 4 0 0 Z " fill="#D4E9F3" transform="translate(94,411)"/>
<path d="M0 0 C1.32 0.66 2.64 1.32 4 2 C1.75 4.0625 1.75 4.0625 -1 6 C-3.3125 5.75 -3.3125 5.75 -5 5 C-3.35 3.35 -1.7 1.7 0 0 Z " fill="#1D4566" transform="translate(317,352)"/>
<path d="M0 0 C1.32 0 2.64 0 4 0 C3.125 3.875 3.125 3.875 2 5 C0.33382885 5.04063832 -1.33388095 5.042721 -3 5 C-2.67 4.01 -2.34 3.02 -2 2 C-1.34 2 -0.68 2 0 2 C0 1.34 0 0.68 0 0 Z " fill="#EBB742" transform="translate(330,324)"/>
<path d="M0 0 C1.64826111 2.96687001 2.44271087 5.65626525 3 9 C1.35 9 -0.3 9 -2 9 C-1.41196203 5.97580475 -0.77321882 2.98241547 0 0 Z " fill="#474747" transform="translate(1081,437)"/>
<path d="M0 0 C0.33 0 0.66 0 1 0 C1.66 3.96 2.32 7.92 3 12 C2.34 12 1.68 12 1 12 C-0.79760213 8.18009548 -1.28743526 5.21571713 -1 1 C-0.67 0.67 -0.34 0.34 0 0 Z " fill="#2C5473" transform="translate(98,435)"/>
<path d="M0 0 C1.32 0.33 2.64 0.66 4 1 C4.33 1.99 4.66 2.98 5 4 C4.34 4.66 3.68 5.32 3 6 C2.34 6.99 1.68 7.98 1 9 C0.67 6.03 0.34 3.06 0 0 Z " fill="#244E6E" transform="translate(123,390)"/>
<path d="M0 0 C0.99 0.33 1.98 0.66 3 1 C0.69 3.64 -1.62 6.28 -4 9 C-4.33 7.68 -4.66 6.36 -5 5 C-4.360625 4.731875 -3.72125 4.46375 -3.0625 4.1875 C-0.66868314 3.11332248 -0.66868314 3.11332248 0 0 Z " fill="#DBEDF3" transform="translate(676,352)"/>
<path d="M0 0 C0.66 0 1.32 0 2 0 C0.33248852 3.94139078 -2.22710649 6.7892812 -5 10 C-5.33 8.68 -5.66 7.36 -6 6 C-5.38125 5.938125 -4.7625 5.87625 -4.125 5.8125 C-1.72238859 5.171081 -1.72238859 5.171081 -0.75 2.4375 C-0.5025 1.633125 -0.255 0.82875 0 0 Z " fill="#1A4465" transform="translate(726,345)"/>
<path d="M0 0 C0.66 0.33 1.32 0.66 2 1 C-0.25 3.5625 -0.25 3.5625 -3 6 C-4.32 5.67 -5.64 5.34 -7 5 C-4.69 3.35 -2.38 1.7 0 0 Z " fill="#DBEEF6" transform="translate(256,469)"/>
<path d="M0 0 C0 0.99 0 1.98 0 3 C-2.31 2.67 -4.62 2.34 -7 2 C-7 1.34 -7 0.68 -7 0 C-4.3333581 -1.33332095 -2.83319697 -0.67102033 0 0 Z " fill="#0D3D62" transform="translate(187,414)"/>
<path d="M0 0 C0.66 0 1.32 0 2 0 C2.28571429 7.42857143 2.28571429 7.42857143 0 11 C-0.66 10.67 -1.32 10.34 -2 10 C-2 9.34 -2 8.68 -2 8 C-1.34 8 -0.68 8 0 8 C0 5.36 0 2.72 0 0 Z " fill="#2B5370" transform="translate(97,399)"/>
<path d="M0 0 C0.99 0.33 1.98 0.66 3 1 C1.35 2.98 -0.3 4.96 -2 7 C-2.99 6.67 -3.98 6.34 -5 6 C-3.35 4.02 -1.7 2.04 0 0 Z " fill="#DFF1F6" transform="translate(697,383)"/>
<path d="M0 0 C0.99 0.33 1.98 0.66 3 1 C0.03 4.96 0.03 4.96 -3 9 C-3.33 7.68 -3.66 6.36 -4 5 C-3.01 4.67 -2.02 4.34 -1 4 C-0.26676204 1.98491642 -0.26676204 1.98491642 0 0 Z " fill="#1D4768" transform="translate(697,379)"/>
<path d="M0 0 C3.63 1.32 7.26 2.64 11 4 C7.41220825 4.89694794 4.65381163 5.08304117 1 5 C0.67 3.35 0.34 1.7 0 0 Z " fill="#224F71" transform="translate(271,293)"/>
<path d="M0 0 C0.66 0 1.32 0 2 0 C0.44499019 3.81684226 -2.03595495 6.19195732 -5 9 C-4.67 7.35 -4.34 5.7 -4 4 C-3.34 4 -2.68 4 -2 4 C-1.34 2.68 -0.68 1.36 0 0 Z " fill="#DBEDF3" transform="translate(633,403)"/>
<path d="M0 0 C0.66 0.33 1.32 0.66 2 1 C1.3503125 1.5878125 1.3503125 1.5878125 0.6875 2.1875 C-1.14838491 4.01502801 -1.14838491 4.01502801 -2.5 6.6875 C-2.995 7.450625 -3.49 8.21375 -4 9 C-4.99 9 -5.98 9 -7 9 C-4.69 6.03 -2.38 3.06 0 0 Z " fill="#FEF7DA" transform="translate(249,394)"/>
<path d="M0 0 C0.66 0.33 1.32 0.66 2 1 C-0.23407889 4.35111834 -1.26215824 5.81553956 -5.25 6.8125 C-6.61125 6.9053125 -6.61125 6.9053125 -8 7 C-5.4837822 4.39391727 -2.94865641 2.10618315 0 0 Z " fill="#FDF3C1" transform="translate(376,292)"/>
<path d="M0 0 C0.33 0.66 0.66 1.32 1 2 C-1.97 2 -4.94 2 -8 2 C-8 1.34 -8 0.68 -8 0 C-4.69693408 -1.10102197 -3.28414305 -0.95067299 0 0 Z " fill="#15476C" transform="translate(188,291)"/>
<path d="M0 0 C0.66 0 1.32 0 2 0 C1.64950425 3.24208567 1.43778819 4.61527704 -1.0625 6.8125 C-1.701875 7.204375 -2.34125 7.59625 -3 8 C-2.45276317 4.62537285 -1.9451 2.91765 0 0 Z " fill="#184464" transform="translate(245,435)"/>
<path d="M0 0 C0 0.66 0 1.32 0 2 C-2.64 2 -5.28 2 -8 2 C-8 1.34 -8 0.68 -8 0 C-5.13822943 -1.43088528 -3.06624227 -0.59991697 0 0 Z " fill="#0D3D63" transform="translate(142,397)"/>
<path d="M0 0 C2.31 0 4.62 0 7 0 C7.33 0.99 7.66 1.98 8 3 C5.36 3 2.72 3 0 3 C0 2.01 0 1.02 0 0 Z " fill="#4A4B49" transform="translate(1184,353)"/>
<path d="M0 0 C0.33 0.66 0.66 1.32 1 2 C-0.98 4.31 -2.96 6.62 -5 9 C-5.66 8.67 -6.32 8.34 -7 8 C-4.69 5.36 -2.38 2.72 0 0 Z " fill="#D6E9F1" transform="translate(734,339)"/>
<path d="M0 0 C4 6 4 6 4 10 C3.34 10 2.68 10 2 10 C-0.4294516 6.3558226 -0.16179575 4.28758728 0 0 Z " fill="#FCF1C7" transform="translate(343,286)"/>
<path d="M0 0 C0.33 0.99 0.66 1.98 1 3 C-0.9375 6.1875 -0.9375 6.1875 -3 9 C-3.99 8.34 -4.98 7.68 -6 7 C-4.02 4.69 -2.04 2.38 0 0 Z " fill="#27506E" transform="translate(625,415)"/>
<path d="M0 0 C2.64 0.66 5.28 1.32 8 2 C7.67 2.66 7.34 3.32 7 4 C5.35 4 3.7 4 2 4 C1.34 2.68 0.68 1.36 0 0 Z " fill="#1D486B" transform="translate(146,399)"/>
<path d="M0 0 C1.45922693 0.11409593 2.91740598 0.24165544 4.375 0.375 C5.59316406 0.47941406 5.59316406 0.47941406 6.8359375 0.5859375 C9 1 9 1 11 3 C8.83032311 3.95465783 7.43671207 4.14401212 5.17578125 3.3984375 C3.4315257 2.64129615 1.71372869 1.82390802 0 1 C0 0.67 0 0.34 0 0 Z " fill="#315A7A" transform="translate(113,372)"/>
<path d="M0 0 C-4.455 1.485 -4.455 1.485 -9 3 C-9.33 2.01 -9.66 1.02 -10 0 C-6.05523353 -0.80688405 -4.00001715 -1.00000429 0 0 Z " fill="#2A5577" transform="translate(368,360)"/>
<path d="M0 0 C1.32 0.66 2.64 1.32 4 2 C-1.625 5 -1.625 5 -5 5 C-5 4.34 -5 3.68 -5 3 C-3.35 2.67 -1.7 2.34 0 2 C0 1.34 0 0.68 0 0 Z " fill="#154161" transform="translate(388,348)"/>
<path d="M0 0 C2.97 0.99 5.94 1.98 9 3 C9 3.33 9 3.66 9 4 C2.25 4.125 2.25 4.125 0 3 C0 2.01 0 1.02 0 0 Z " fill="#225173" transform="translate(229,276)"/>
<path d="M0 0 C0.66 1.32 1.32 2.64 2 4 C1.01 4.99 0.02 5.98 -1 7 C-1.99 6.67 -2.98 6.34 -4 6 C-2.68 4.02 -1.36 2.04 0 0 Z " fill="#1F4E72" transform="translate(252,425)"/>
<path d="M0 0 C0.66 0.99 1.32 1.98 2 3 C0.35 4.65 -1.3 6.3 -3 8 C-2.45276317 4.62537285 -1.9451 2.91765 0 0 Z " fill="#214F73" transform="translate(690,387)"/>
<path d="M0 0 C0.33 0.99 0.66 1.98 1 3 C-0.9375 5.6875 -0.9375 5.6875 -3 8 C-3.99 7.67 -4.98 7.34 -6 7 C-4.02 4.69 -2.04 2.38 0 0 Z " fill="#335B78" transform="translate(658,376)"/>
<path d="M0 0 C1.98 0 3.96 0 6 0 C5.67 0.66 5.34 1.32 5 2 C2.6859378 2.73075648 0.35171131 3.40138258 -2 4 C-1.34 2.68 -0.68 1.36 0 0 Z " fill="#235072" transform="translate(327,372)"/>
<path d="M0 0 C0.625 1.875 0.625 1.875 1 4 C0.34 4.66 -0.32 5.32 -1 6 C-3.125 5.625 -3.125 5.625 -5 5 C-3.35 3.35 -1.7 1.7 0 0 Z " fill="#174268" transform="translate(326,361)"/>
<path d="M0 0 C-0.33 0.66 -0.66 1.32 -1 2 C-3.31 2 -5.62 2 -8 2 C-8 1.34 -8 0.68 -8 0 C-4.94736336 -0.98120464 -3.05263664 -0.98120464 0 0 Z " fill="#4A4949" transform="translate(1210,354)"/>
<path d="M0 0 C1.32 0 2.64 0 4 0 C3.34 1.65 2.68 3.3 2 5 C1.01 4.67 0.02 4.34 -1 4 C-0.67 2.68 -0.34 1.36 0 0 Z " fill="#0E4067" transform="translate(115,318)"/>
<path d="M0 0 C0.66 0.33 1.32 0.66 2 1 C-0.64 2.98 -3.28 4.96 -6 7 C-6.66 6.34 -7.32 5.68 -8 5 C-6.71475739 4.13619741 -5.42157581 3.28419631 -4.125 2.4375 C-3.04605469 1.72400391 -3.04605469 1.72400391 -1.9453125 0.99609375 C-1.30335938 0.66738281 -0.66140625 0.33867187 0 0 Z " fill="#DCCDA3" transform="translate(351,311)"/>
<path d="M0 0 C0.66 0.99 1.32 1.98 2 3 C1.01 4.32 0.02 5.64 -1 7 C-1.99 6.67 -2.98 6.34 -4 6 C-2.68 4.02 -1.36 2.04 0 0 Z " fill="#265273" transform="translate(257,418)"/>
<path d="M0 0 C0.99 0.33 1.98 0.66 3 1 C1.35 2.98 -0.3 4.96 -2 7 C-2.33 6.01 -2.66 5.02 -3 4 C-1.5625 1.8125 -1.5625 1.8125 0 0 Z " fill="#DBEEF6" transform="translate(618,420)"/>
<path d="M0 0 C2.31 0.33 4.62 0.66 7 1 C7.33 1.99 7.66 2.98 8 4 C5.64828869 3.40138258 3.3140622 2.73075648 1 2 C0.67 1.34 0.34 0.68 0 0 Z " fill="#305979" transform="translate(214,410)"/>
<path d="M0 0 C0.66 1.32 1.32 2.64 2 4 C-0.375 5.5625 -0.375 5.5625 -3 7 C-3.66 6.67 -4.32 6.34 -5 6 C-3.35 4.02 -1.7 2.04 0 0 Z " fill="#2A5575" transform="translate(636,402)"/>
<path d="M0 0 C-1.39332574 3.36720387 -2.9789286 4.9859524 -6 7 C-5.37162381 3.35541809 -4.14650034 0 0 0 Z " fill="#CFE5EE" transform="translate(289,380)"/>
<path d="M0 0 C0 0.66 0 1.32 0 2 C-0.99 2 -1.98 2 -3 2 C-2.67 2.99 -2.34 3.98 -2 5 C-4.475 4.01 -4.475 4.01 -7 3 C-3.375 0 -3.375 0 0 0 Z " fill="#3B5B74" transform="translate(54,344)"/>
<path d="M0 0 C6.75 0.875 6.75 0.875 9 2 C9 2.66 9 3.32 9 4 C7.35 4 5.7 4 4 4 C4 3.34 4 2.68 4 2 C2.68 1.34 1.36 0.68 0 0 Z " fill="#DDB65C" transform="translate(387,316)"/>
<path d="M0 0 C0.99 0.33 1.98 0.66 3 1 C3 2.65 3 4.3 3 6 C2.01 6 1.02 6 0 6 C0 4.02 0 2.04 0 0 Z " fill="#EFB53B" transform="translate(343,276)"/>
</svg>
